<?xml version="1.0" encoding="UTF-8" standalone="no"?>
<!DOCTYPE svg PUBLIC "-//W3C//DTD SVG 1.1//EN" "http://www.w3.org/Graphics/SVG/1.1/DTD/svg11.dtd">
<svg width="100%" height="100%" viewBox="0 0 300 35" version="1.1" xmlns="http://www.w3.org/2000/svg" xmlns:xlink="http://www.w3.org/1999/xlink" xml:space="preserve" xmlns:serif="http://www.serif.com/" style="fill-rule:evenodd;clip-rule:evenodd;">
    <g id="plated-logo.svg" transform="matrix(0.897546,0,0,0.897546,149.449,17.9509)">
        <clipPath id="_clip1">
            <rect x="-46.966" y="-20" width="95.159" height="38.995"/>
        </clipPath>
        <g clip-path="url(#_clip1)">
            <g transform="matrix(1,0,0,1,-171.5,-20)">
                <g>
                    <g transform="matrix(0.180478,0,0,0.180478,117.359,1.096)">
                        <path d="M97.892,56.117C105.828,56.117 112.581,57.56 118.208,60.475C123.836,63.361 128.078,67.43 130.964,72.624C133.821,77.848 135.264,83.908 135.264,90.834C135.264,97.731 133.821,103.791 130.964,108.957C128.078,114.152 123.836,118.221 118.208,121.107C112.581,123.992 105.828,125.464 97.892,125.464L77.027,125.464L77.027,166.674L55.181,166.674L55.181,56.117L97.892,56.117ZM95.035,108.149C107.184,108.149 113.245,102.377 113.245,90.834C113.245,79.233 107.184,73.432 95.035,73.432L77.027,73.432L77.027,108.149L95.035,108.149ZM182.967,168.261C175.464,168.261 169.721,166.212 165.767,162.172C161.814,158.103 159.822,151.956 159.822,143.674L159.822,49.768L180.774,49.768L180.774,142.837C180.774,147.945 182.88,150.485 187.122,150.485C188.334,150.485 189.633,150.283 190.989,149.878L192.057,150.196L193.933,166.299C192.779,166.905 191.249,167.367 189.316,167.713C187.411,168.088 185.275,168.261 182.967,168.261ZM235.287,168.261C229.948,168.261 225.302,167.28 221.377,165.318C217.453,163.327 214.423,160.441 212.316,156.66C210.18,152.851 209.141,148.262 209.141,142.924C209.141,137.989 210.18,133.833 212.316,130.486C214.423,127.138 217.712,124.396 222.128,122.232C226.572,120.097 232.373,118.452 239.529,117.297C244.522,116.489 248.302,115.595 250.9,114.642C253.497,113.69 255.257,112.593 256.152,111.381C257.075,110.169 257.537,108.64 257.537,106.764C257.537,104.109 256.585,102.06 254.738,100.646C252.862,99.232 249.774,98.539 245.417,98.539C240.799,98.539 236.384,99.578 232.199,101.627C228.015,103.705 224.379,106.418 221.291,109.794L219.79,109.794L211.017,96.577C215.259,91.873 220.425,88.237 226.514,85.611C232.632,82.985 239.27,81.686 246.484,81.686C257.537,81.686 265.531,84.023 270.466,88.699C275.401,93.402 277.853,100.04 277.853,108.669L277.853,144.886C277.853,148.609 279.498,150.485 282.788,150.485C284.029,150.485 285.27,150.254 286.482,149.792L287.55,150.109L289.051,164.712C287.896,165.462 286.28,166.068 284.231,166.559C282.153,167.02 279.874,167.28 277.421,167.28C272.428,167.28 268.532,166.328 265.733,164.394C262.934,162.49 260.942,159.488 259.73,155.39L258.143,155.246C254.045,163.933 246.427,168.261 235.287,168.261ZM241.954,152.591C246.802,152.591 250.669,150.975 253.555,147.714C256.469,144.482 257.912,139.951 257.912,134.151L257.912,125.695L256.469,125.378C255.2,126.388 253.555,127.225 251.506,127.917C249.486,128.581 246.542,129.274 242.704,129.908C238.173,130.659 234.912,131.957 232.921,133.804C230.93,135.651 229.92,138.249 229.92,141.625C229.92,145.203 230.987,147.945 233.094,149.792C235.23,151.668 238.173,152.591 241.954,152.591ZM354.761,146.791L360.216,162.288C357.936,164.135 355.108,165.606 351.673,166.674C348.239,167.713 344.343,168.261 340.015,168.261C331.011,168.261 324.142,165.808 319.439,160.874C314.763,155.968 312.426,148.811 312.426,139.432L312.426,99.809L299.728,99.809L299.728,83.187L312.426,83.187L312.426,66.939L333.377,63.534L333.377,83.187L357.041,83.187L357.041,99.809L333.377,99.809L333.377,137.931C333.377,142.058 334.214,145.088 335.946,146.964C337.648,148.868 340.159,149.792 343.42,149.792C347.143,149.792 350.404,148.782 353.174,146.791L354.761,146.791Z" style="fill:none;fill-rule:nonzero;stroke:black;stroke-width:11.23px;"/>
                    </g>
                </g>
                <g transform="matrix(1,0,0,1,124.724,31.1757)">
                    <g>
                        <g>
                            <path d="M10.313,-19.958C11.74,-19.958 12.964,-19.693 13.979,-19.167C14.99,-18.651 15.755,-17.922 16.271,-16.979C16.781,-16.031 17.042,-14.937 17.042,-13.687C17.042,-12.437 16.781,-11.339 16.271,-10.396C15.755,-9.464 14.99,-8.734 13.979,-8.208C12.964,-7.693 11.74,-7.437 10.313,-7.437L6.542,-7.437L6.542,0L2.604,0L2.604,-19.958L10.313,-19.958ZM9.792,-10.562C11.984,-10.562 13.083,-11.604 13.083,-13.687C13.083,-15.781 11.984,-16.833 9.792,-16.833L6.542,-16.833L6.542,-10.562L9.792,-10.562Z" style="fill-rule:nonzero;"/>
                        </g>
                    </g>
                </g>
                <g transform="matrix(1,0,0,1,144.13,31.1757)">
                    <g>
                        <g>
                            <path d="M6.25,0.292C4.885,0.292 3.854,-0.073 3.146,-0.812C2.438,-1.547 2.083,-2.656 2.083,-4.146L2.083,-21.104L5.854,-21.104L5.854,-4.292C5.854,-3.375 6.234,-2.917 7,-2.917C7.219,-2.917 7.458,-2.948 7.708,-3.021L7.896,-2.979L8.229,-0.062C8.021,0.047 7.74,0.13 7.396,0.187C7.047,0.255 6.667,0.292 6.25,0.292Z" style="fill-rule:nonzero;"/>
                        </g>
                    </g>
                </g>
                <g transform="matrix(1,0,0,1,153.956,31.1757)">
                    <g>
                        <g>
                            <path d="M5.875,0.292C4.901,0.292 4.063,0.115 3.354,-0.229C2.646,-0.589 2.094,-1.109 1.708,-1.792C1.333,-2.484 1.146,-3.318 1.146,-4.292C1.146,-5.177 1.333,-5.922 1.708,-6.521C2.094,-7.13 2.688,-7.63 3.479,-8.021C4.281,-8.406 5.333,-8.708 6.625,-8.917C7.526,-9.052 8.214,-9.208 8.688,-9.375C9.156,-9.552 9.469,-9.755 9.625,-9.979C9.792,-10.198 9.875,-10.479 9.875,-10.812C9.875,-11.297 9.708,-11.667 9.375,-11.917C9.042,-12.167 8.484,-12.292 7.708,-12.292C6.859,-12.292 6.063,-12.104 5.313,-11.729C4.563,-11.365 3.906,-10.88 3.354,-10.271L3.063,-10.271L1.479,-12.646C2.24,-13.49 3.172,-14.151 4.271,-14.625C5.38,-15.109 6.589,-15.354 7.896,-15.354C9.88,-15.354 11.318,-14.927 12.208,-14.083C13.109,-13.234 13.563,-12.031 13.563,-10.479L13.563,-3.937C13.563,-3.255 13.854,-2.917 14.438,-2.917C14.672,-2.917 14.896,-2.958 15.104,-3.042L15.313,-3L15.583,-0.354C15.375,-0.214 15.083,-0.104 14.708,-0.021C14.333,0.062 13.922,0.104 13.479,0.104C12.573,0.104 11.865,-0.068 11.354,-0.417C10.854,-0.76 10.49,-1.302 10.271,-2.042L10,-2.062C9.26,-0.49 7.885,0.292 5.875,0.292ZM7.063,-2.542C7.938,-2.542 8.635,-2.833 9.167,-3.417C9.693,-4 9.958,-4.818 9.958,-5.875L9.958,-7.396L9.688,-7.458C9.464,-7.276 9.167,-7.125 8.792,-7C8.427,-6.875 7.901,-6.75 7.208,-6.625C6.385,-6.5 5.797,-6.271 5.438,-5.937C5.073,-5.604 4.896,-5.13 4.896,-4.521C4.896,-3.865 5.083,-3.375 5.458,-3.042C5.844,-2.708 6.38,-2.542 7.063,-2.542Z" style="fill-rule:nonzero;"/>
                        </g>
                    </g>
                </g>
                <g transform="matrix(1,0,0,1,171.001,31.1757)">
                    <g>
                        <g>
                            <path d="M10.396,-3.583L11.375,-0.792C10.958,-0.458 10.438,-0.193 9.813,0C9.198,0.193 8.505,0.292 7.729,0.292C6.104,0.292 4.865,-0.151 4.021,-1.042C3.172,-1.927 2.75,-3.219 2.75,-4.917L2.75,-12.062L0.458,-12.062L0.458,-15.062L2.75,-15.062L2.75,-18L6.521,-18.625L6.521,-15.062L10.792,-15.062L10.792,-12.062L6.521,-12.062L6.521,-5.187C6.521,-4.437 6.672,-3.885 6.979,-3.542C7.297,-3.208 7.75,-3.042 8.333,-3.042C9.01,-3.042 9.604,-3.219 10.104,-3.583L10.396,-3.583Z" style="fill-rule:nonzero;"/>
                        </g>
                    </g>
                </g>
                <g>
                    <g>
                        <clipPath id="_clip2">
                            <path d="M190.656,18.906C188.849,18.906 187.38,20.37 187.38,22.182C187.38,23.99 188.849,25.453 190.656,25.453C192.464,25.453 193.932,23.99 193.932,22.182C193.932,20.37 192.464,18.906 190.656,18.906Z"/>
                        </clipPath>
                        <g clip-path="url(#_clip2)">
                            <rect x="187.38" y="18.906" width="6.552" height="6.547" style="fill-rule:nonzero;"/>
                        </g>
                    </g>
                </g>
                <g>
                    <path d="M183.661,26.906C185.094,26.385 186.682,27.13 187.203,28.562C187.385,29.068 187.411,29.583 187.312,30.073C187.74,30.172 188.109,30.479 188.271,30.927C188.448,31.417 188.328,31.943 187.995,32.302C189.885,33.057 192.052,33.151 194.12,32.401C198.573,30.776 200.875,25.839 199.255,21.37C197.635,16.906 192.708,14.599 188.25,16.224C183.812,17.839 181.516,22.745 183.094,27.193C183.271,27.078 183.458,26.984 183.661,26.906ZM190.24,21.708C191.677,21.187 193.26,21.927 193.781,23.365C194.302,24.802 193.562,26.391 192.13,26.911C190.693,27.437 189.109,26.693 188.589,25.255C188.068,23.818 188.807,22.229 190.24,21.708Z" style="fill-rule:nonzero;"/>
                </g>
                <g>
                    <g>
                        <clipPath id="_clip3">
                            <path d="M213.229,8.818L217.464,18.109L190.156,30.562L185.917,21.271L213.229,8.818Z"/>
                        </clipPath>
                        <g clip-path="url(#_clip3)">
                            <g>
                                <clipPath id="_clip4">
                                    <path d="M230.854,0.776L236.219,12.531L191.276,33.031L185.911,21.276L230.854,0.776Z"/>
                                </clipPath>
                                <g clip-path="url(#_clip4)">
                                    <path d="M218.094,15.568C219.62,16.594 222.125,18.99 227.031,16.187C231.76,13.484 234.63,9.495 233.656,6.937C233.672,6.969 233.687,6.995 233.703,7.031C233.693,7 233.682,6.979 233.667,6.953C233.651,6.901 233.625,6.859 233.604,6.812C233.583,6.76 233.562,6.714 233.536,6.661C233.521,6.62 233.5,6.578 233.479,6.536C233.458,6.49 233.437,6.443 233.417,6.401C233.401,6.359 233.38,6.318 233.359,6.281C233.375,6.312 233.391,6.349 233.401,6.385C232.151,4.12 227.187,3.505 222.078,5.328C216.76,7.224 216.964,10.531 216.578,12.25C216.297,13.516 214.75,14.109 214.75,14.109C214.75,14.109 213.484,14.609 210.755,15.609C208.141,16.568 194.417,21.484 192.016,22.578C189.766,23.604 187.547,24.307 188.354,26.49C188.339,26.464 188.323,26.443 188.312,26.422L188.292,26.38C188.328,26.464 188.365,26.547 188.411,26.63C188.448,26.729 188.49,26.828 188.542,26.927L188.547,26.937C188.573,26.99 188.594,27.047 188.62,27.099C188.604,27.062 188.589,27.021 188.573,26.979C189.885,29.427 193.672,27.094 193.672,27.094C193.672,27.094 209.125,19.062 211.672,17.667C214.432,16.156 215.458,15.656 215.458,15.656C215.458,15.656 216.99,14.828 218.094,15.568" style="fill:white;fill-rule:nonzero;"/>
                                </g>
                            </g>
                        </g>
                    </g>
                </g>
                <g>
                    <g transform="matrix(0.156321,0,0,0.156321,200.888,1.09599)">
                        <path d="M48.325,193.83C40.695,193.83 33.965,191.998 28.101,188.3C22.237,184.601 17.672,179.004 14.34,171.541C11.042,164.044 9.376,154.848 9.376,143.887C9.376,132.892 11.075,123.663 14.474,116.166C17.872,108.703 22.603,103.105 28.634,99.407C34.664,95.709 41.628,93.876 49.524,93.876C55.522,93.876 60.719,94.909 65.117,96.975C69.515,99.04 73.213,102.239 76.245,106.604L78.078,106.171L78.078,57.026L102.267,57.026L102.267,191.998L78.078,191.998L78.078,179.504L76.245,179.17C73.58,183.702 69.915,187.3 65.25,189.899C60.586,192.531 54.955,193.83 48.325,193.83ZM56.188,173.307C62.985,173.307 68.382,170.874 72.314,166.01C76.279,161.179 78.278,153.782 78.278,143.887C78.278,133.991 76.279,126.595 72.314,121.73C68.382,116.832 62.985,114.367 56.188,114.367C49.058,114.367 43.627,116.766 39.895,121.497C36.13,126.228 34.265,133.691 34.265,143.887C34.265,154.015 36.13,161.445 39.895,166.21C43.627,170.941 49.058,173.307 56.188,173.307Z" style="fill:none;fill-rule:nonzero;stroke:black;stroke-width:12.96px;"/>
                    </g>
                </g>
                <g transform="matrix(1,0,0,1,201.002,31.1097)">
                    <g>
                        <g>
                            <path d="M7.438,0.292C6.24,0.292 5.188,0.005 4.271,-0.562C3.365,-1.146 2.651,-2.021 2.125,-3.187C1.609,-4.365 1.354,-5.812 1.354,-7.521C1.354,-9.24 1.615,-10.687 2.146,-11.854C2.688,-13.021 3.422,-13.896 4.354,-14.479C5.297,-15.062 6.385,-15.354 7.625,-15.354C8.568,-15.354 9.38,-15.187 10.063,-14.854C10.755,-14.531 11.339,-14.031 11.813,-13.354L12.104,-13.417L12.104,-21.104L15.875,-21.104L15.875,0L12.104,0L12.104,-1.958L11.813,-2C11.396,-1.292 10.818,-0.729 10.083,-0.312C9.359,0.089 8.479,0.292 7.438,0.292ZM8.667,-2.917C9.734,-2.917 10.573,-3.297 11.188,-4.062C11.813,-4.823 12.125,-5.979 12.125,-7.521C12.125,-9.062 11.813,-10.214 11.188,-10.979C10.573,-11.755 9.734,-12.146 8.667,-12.146C7.552,-12.146 6.708,-11.771 6.125,-11.021C5.542,-10.281 5.25,-9.115 5.25,-7.521C5.25,-5.937 5.542,-4.771 6.125,-4.021C6.708,-3.281 7.552,-2.917 8.667,-2.917Z" style="fill-rule:nonzero;"/>
                        </g>
                    </g>
                </g>
                <g>
                    <clipPath id="_clip5">
                        <rect x="198.667" y="10.432" width="5.667" height="4.234"/>
                    </clipPath>
                    <g clip-path="url(#_clip5)">
                        <path d="M204.302,13.76C204.281,14.026 204.229,14.281 204.146,14.536L204.12,14.609L203.76,14.271C203.562,14.083 203.469,13.927 203.432,13.755C203.391,13.583 203.406,13.396 203.427,13.151L203.443,12.974C203.453,12.781 203.344,12.557 203.182,12.339C202.943,12.016 202.583,11.714 202.365,11.547L201.12,10.526L201,10.427L201.151,10.443C201.344,10.458 201.536,10.49 201.724,10.536C201.911,10.583 202.094,10.646 202.266,10.719C202.458,10.807 202.646,10.906 202.818,11.026C202.99,11.146 203.151,11.281 203.302,11.427C203.521,11.651 203.724,11.891 203.891,12.156C204.052,12.422 204.177,12.714 204.25,13.026C204.302,13.271 204.318,13.521 204.302,13.76ZM200.484,10.453C200.531,10.448 200.578,10.443 200.63,10.437L200.651,10.437C200.651,10.437 201.406,11.193 201.625,11.411L201.818,11.599L202.057,11.833C202.115,11.891 202.167,11.943 202.224,11.995C202.229,12 202.24,12.01 202.245,12.016C202.281,12.042 202.312,12.078 202.344,12.12C202.38,12.161 202.406,12.203 202.427,12.245C202.437,12.281 202.443,12.312 202.443,12.344C202.437,12.38 202.422,12.406 202.396,12.437L202.396,12.443C202.359,12.479 202.302,12.49 202.25,12.484C202.182,12.469 202.104,12.437 202.062,12.411L202.062,12.406C201.87,12.26 201.682,12.104 201.505,11.943C201.323,11.781 201.146,11.615 200.974,11.448C200.88,11.365 200.781,11.271 200.687,11.177C200.49,10.984 200.286,10.792 200.083,10.604L200.016,10.542L200.104,10.521C200.141,10.516 200.182,10.505 200.224,10.5C200.26,10.49 200.302,10.484 200.344,10.474C200.391,10.469 200.437,10.464 200.484,10.453ZM199.766,10.625C199.802,10.609 199.839,10.599 199.875,10.589L199.901,10.578L199.922,10.599C200.172,10.859 200.417,11.125 200.672,11.385C200.885,11.615 201.094,11.839 201.312,12.062C201.432,12.198 201.562,12.328 201.687,12.458L201.734,12.51C201.781,12.557 201.828,12.604 201.875,12.656L201.88,12.661C201.906,12.687 201.937,12.734 201.948,12.776C201.969,12.828 201.964,12.88 201.917,12.927L201.911,12.932C201.865,12.974 201.812,12.979 201.76,12.964C201.719,12.953 201.677,12.927 201.646,12.896C201.646,12.891 201.641,12.891 201.641,12.891C201.562,12.812 201.484,12.74 201.406,12.667L201.323,12.589C201.036,12.312 200.75,12.047 200.469,11.771C200.13,11.453 199.797,11.141 199.458,10.818L199.406,10.771L199.474,10.74C199.5,10.729 199.531,10.719 199.562,10.703C199.594,10.687 199.625,10.677 199.656,10.661C199.693,10.646 199.729,10.635 199.766,10.625ZM199.193,10.885C199.229,10.865 199.266,10.844 199.297,10.828L199.333,10.807L201.391,13.073L201.396,13.078C201.422,13.12 201.458,13.193 201.469,13.26C201.474,13.318 201.469,13.37 201.427,13.406C201.396,13.432 201.365,13.448 201.328,13.453C201.297,13.453 201.266,13.448 201.234,13.437C201.187,13.417 201.146,13.391 201.104,13.359C201.062,13.323 201.026,13.292 201,13.255C200.995,13.25 200.984,13.24 200.979,13.234C200.901,13.151 200.818,13.062 200.734,12.979L200.656,12.901C200.557,12.797 200.453,12.698 200.354,12.599L200.042,12.281C199.661,11.901 199.281,11.516 198.901,11.135L198.865,11.099L198.906,11.062C198.937,11.042 199.062,10.958 199.094,10.937C199.125,10.927 199.161,10.906 199.193,10.885Z" style="fill:rgb(65,126,190);fill-rule:nonzero;"/>
                    </g>
                </g>
                <g>
                    <path d="M198.266,13.828C198.328,13.943 198.38,14.057 198.417,14.177L198.417,14.193C198.401,14.339 198.417,14.484 198.443,14.63C198.474,14.792 198.531,14.953 198.599,15.104C198.672,15.266 198.76,15.422 198.865,15.573C198.974,15.729 199.099,15.875 199.234,16.005C199.417,16.193 199.635,16.365 199.875,16.505C200.089,16.63 200.312,16.729 200.552,16.786C200.755,16.833 200.974,16.849 201.172,16.802C201.344,16.771 201.5,16.698 201.63,16.568C201.755,16.437 201.833,16.281 201.865,16.109C201.906,15.911 201.891,15.693 201.844,15.49C201.792,15.255 201.693,15.026 201.568,14.812C201.432,14.573 201.255,14.359 201.068,14.172C200.932,14.036 200.786,13.911 200.635,13.807C200.484,13.703 200.328,13.609 200.161,13.536C200.016,13.469 199.854,13.417 199.693,13.38C199.547,13.354 199.401,13.339 199.255,13.354L199.24,13.354C199.115,13.318 198.995,13.266 198.88,13.198C198.766,13.135 198.656,13.062 198.557,12.984C198.427,12.885 198.302,12.781 198.182,12.661C198.062,12.547 197.953,12.427 197.849,12.302L197.823,12.276L197.844,12.25C197.88,12.182 197.922,12.115 197.969,12.047C198.01,11.984 198.062,11.917 198.109,11.854C198.167,11.776 198.224,11.708 198.286,11.635C198.349,11.568 198.411,11.5 198.479,11.432C198.5,11.417 198.521,11.396 198.542,11.375C198.557,11.359 198.578,11.339 198.604,11.318C198.62,11.302 198.635,11.286 198.651,11.271C198.667,11.26 198.687,11.245 198.703,11.229L198.745,11.198L198.771,11.234C198.885,11.375 199.062,11.589 199.24,11.802C199.672,12.323 200.099,12.839 200.531,13.38C200.693,13.604 201,13.958 201.323,14.198C201.542,14.359 201.766,14.474 201.958,14.458L202.13,14.443C202.38,14.422 202.568,14.406 202.74,14.448C202.911,14.484 203.068,14.583 203.255,14.781L203.479,15.021L203.781,15.344L203.766,15.37C203.703,15.49 203.63,15.599 203.557,15.714C203.484,15.823 203.411,15.932 203.333,16.047C203.25,16.161 203.167,16.276 203.078,16.385C202.99,16.5 202.901,16.609 202.812,16.719C202.656,16.911 202.49,17.099 202.323,17.292C202.156,17.474 201.99,17.661 201.823,17.844L201.76,17.917C201.479,18.229 201.198,18.536 200.927,18.865L200.891,18.911L200.854,18.865C200.589,18.542 200.302,18.229 200.021,17.917L199.958,17.844C199.792,17.661 199.625,17.474 199.458,17.292C199.292,17.099 199.13,16.911 198.974,16.719C198.745,16.443 198.521,16.156 198.312,15.849C198.109,15.547 197.922,15.229 197.781,14.901C197.646,14.604 197.552,14.297 197.505,13.984C197.458,13.677 197.464,13.354 197.531,13.031L197.552,12.953L197.609,13.01C197.693,13.089 197.771,13.172 197.849,13.255C197.922,13.339 197.995,13.427 198.062,13.516C198.141,13.609 198.208,13.719 198.266,13.828Z" style="fill-rule:nonzero;"/>
                </g>
                <g>
                    <clipPath id="_clip6">
                        <rect x="161.365" y="12" width="25.635" height="0.359"/>
                    </clipPath>
                    <g clip-path="url(#_clip6)">
                        <path d="M190.557,26.229L186.833,26.229C186.656,21.01 182.698,16.734 177.62,16.062C177.964,15.51 178.193,14.74 178.26,13.833C178.292,13.365 178.068,12.917 177.667,12.667C176.786,12.109 175.651,12.109 174.771,12.667C174.37,12.917 174.146,13.365 174.177,13.833C174.245,14.74 174.474,15.51 174.818,16.062C169.74,16.734 165.781,21.01 165.604,26.229L161.88,26.229C161.599,26.229 161.37,26.458 161.37,26.745C161.37,27.026 161.599,27.255 161.88,27.255L162.833,27.255L163.417,28.448C163.599,28.823 163.99,29.068 164.411,29.068L188.026,29.068C188.448,29.068 188.839,28.823 189.026,28.448L189.604,27.255L190.557,27.255C190.839,27.255 191.068,27.026 191.068,26.745C191.068,26.458 190.839,26.229 190.557,26.229ZM175.203,13.76C175.193,13.672 175.24,13.583 175.318,13.531C175.594,13.359 175.906,13.276 176.219,13.276C176.531,13.276 176.849,13.359 177.12,13.531C177.198,13.583 177.245,13.672 177.234,13.76C177.135,15.182 176.568,15.969 176.219,15.969C175.87,15.969 175.302,15.182 175.203,13.76ZM176.219,16.995C181.391,16.995 185.615,21.104 185.807,26.229L166.63,26.229C166.823,21.104 171.047,16.995 176.219,16.995ZM188.104,27.995C188.089,28.026 188.057,28.047 188.026,28.047L164.411,28.047C164.38,28.047 164.349,28.026 164.333,27.995L163.974,27.255L188.464,27.255L188.104,27.995Z" style="fill-rule:nonzero;"/>
                    </g>
                </g>
                <g>
                    <path d="M176.375,10.354C176.458,10.401 176.547,10.422 176.635,10.422C176.812,10.422 176.984,10.333 177.078,10.167C177.224,9.922 177.141,9.609 176.896,9.469C176.307,9.125 175.974,8.766 175.911,8.411C175.797,7.786 176.453,6.964 177.089,6.172C178.161,4.839 179.63,3.016 177.531,1.286C177.312,1.104 176.99,1.135 176.807,1.354C176.625,1.573 176.656,1.896 176.875,2.078C178.068,3.062 177.615,3.885 176.292,5.531C175.51,6.505 174.703,7.51 174.901,8.599C175.026,9.271 175.51,9.844 176.375,10.354Z" style="fill-rule:nonzero;"/>
                </g>
                <g>
                    <path d="M172.172,12.104C172.255,12.151 172.344,12.172 172.432,12.172C172.609,12.172 172.781,12.083 172.875,11.917C173.021,11.677 172.937,11.359 172.693,11.219C172.198,10.927 171.922,10.635 171.865,10.344C171.771,9.828 172.333,9.13 172.88,8.453C173.38,7.828 173.901,7.182 174.109,6.479C174.37,5.589 174.083,4.792 173.25,4.104C173.036,3.927 172.714,3.958 172.531,4.177C172.349,4.396 172.38,4.719 172.599,4.896C173.594,5.719 173.229,6.38 172.083,7.807C171.391,8.667 170.677,9.552 170.859,10.531C170.969,11.135 171.401,11.651 172.172,12.104Z" style="fill-rule:nonzero;"/>
                </g>
                <g>
                    <path d="M178.266,10.531C178.375,11.135 178.807,11.651 179.578,12.104C179.661,12.151 179.75,12.172 179.839,12.172C180.016,12.172 180.187,12.083 180.281,11.917C180.422,11.677 180.344,11.359 180.099,11.219C179.604,10.927 179.328,10.635 179.271,10.344C179.177,9.828 179.74,9.13 180.286,8.453C180.786,7.828 181.307,7.182 181.516,6.479C181.776,5.589 181.49,4.792 180.656,4.104C180.437,3.927 180.115,3.958 179.937,4.177C179.755,4.396 179.786,4.719 180.005,4.896C181,5.719 180.635,6.38 179.49,7.807C178.797,8.667 178.083,9.552 178.266,10.531Z" style="fill-rule:nonzero;"/>
                </g>
                <g>
                    <path d="M159.063,33.401C159.063,33.401 153.229,33.12 158.333,34.75C159.63,35.161 168.115,36.734 168.115,36.734C168.115,36.734 168.146,37.583 168.536,37.583L186.182,37.583C186.568,37.583 186.604,36.734 186.604,36.734C186.604,36.734 195.062,35.078 196.385,34.75C201.292,33.505 195.656,33.401 195.656,33.401L159.063,33.401" style="fill:rgb(65,126,190);fill-rule:nonzero;"/>
                </g>
            </g>
        </g>
    </g>
</svg>
