<svg xmlns="http://www.w3.org/2000/svg" xmlns:xlink="http://www.w3.org/1999/xlink" width="500" zoomAndPan="magnify" viewBox="0 0 375 374.999991" height="500" preserveAspectRatio="xMidYMid meet" version="1.0"><defs><g/><clipPath id="9919559a03"><path d="M 236.199219 150.601562 L 256.609375 150.601562 L 256.609375 171.011719 L 236.199219 171.011719 Z M 236.199219 150.601562 " clip-rule="nonzero"/></clipPath><clipPath id="5e0c31f22a"><path d="M 246.402344 150.601562 C 240.765625 150.601562 236.199219 155.171875 236.199219 160.808594 C 236.199219 166.445312 240.765625 171.011719 246.402344 171.011719 C 252.039062 171.011719 256.609375 166.445312 256.609375 160.808594 C 256.609375 155.171875 252.039062 150.601562 246.402344 150.601562 Z M 246.402344 150.601562 " clip-rule="nonzero"/></clipPath><clipPath id="807ccad8da"><path d="M 238 119 L 330 119 L 330 180 L 238 180 Z M 238 119 " clip-rule="nonzero"/></clipPath><clipPath id="afb901d083"><path d="M 316.75 119.15625 L 329.957031 148.121094 L 244.847656 186.9375 L 231.640625 157.976562 Z M 316.75 119.15625 " clip-rule="nonzero"/></clipPath><clipPath id="196105f4a0"><path d="M 371.695312 94.097656 L 388.410156 130.742188 L 248.332031 194.628906 L 231.617188 157.984375 Z M 371.695312 94.097656 " clip-rule="nonzero"/></clipPath><clipPath id="ebe91c4484"><path d="M 271 124.199219 L 289 124.199219 L 289 138 L 271 138 Z M 271 124.199219 " clip-rule="nonzero"/></clipPath><clipPath id="db8c0eff77"><path d="M 267.589844 126 L 288 126 L 288 150.820312 L 267.589844 150.820312 Z M 267.589844 126 " clip-rule="nonzero"/></clipPath><clipPath id="2e5204527e"><path d="M 155.105469 129 L 234.605469 129 L 234.605469 130.371094 L 155.105469 130.371094 Z M 155.105469 129 " clip-rule="nonzero"/></clipPath><clipPath id="c6657361b6"><path d="M 197 95.121094 L 209 95.121094 L 209 125 L 197 125 Z M 197 95.121094 " clip-rule="nonzero"/></clipPath></defs><path stroke-linecap="butt" transform="matrix(0.75, 0, 0, 0.75, 17.956281, 95.094707)" fill="none" stroke-linejoin="miter" d="M 73.428088 42.082061 C 79.365588 42.082061 84.438505 43.170602 88.657256 45.347686 C 92.870798 47.519561 96.058298 50.561228 98.214548 54.477895 C 100.36559 58.389353 101.443715 62.936229 101.443715 68.118521 C 101.443715 73.295604 100.36559 77.832063 98.214548 81.727897 C 96.058298 85.62373 92.870798 88.65498 88.657256 90.832064 C 84.438505 93.003939 79.365588 94.092481 73.428088 94.092481 L 57.777045 94.092481 L 57.777045 124.998733 L 41.386419 124.998733 L 41.386419 42.082061 Z M 71.271838 81.102897 C 80.386422 81.102897 84.943714 76.774771 84.943714 68.118521 C 84.943714 59.420603 80.386422 55.071645 71.271838 55.071645 L 57.777045 55.071645 L 57.777045 81.102897 Z M 137.224967 126.191441 C 131.594759 126.191441 127.292675 124.670608 124.323925 121.623733 C 121.355175 118.582066 119.870799 113.962274 119.870799 107.759148 L 119.870799 37.321644 L 135.584342 37.321644 L 135.584342 107.134148 C 135.584342 110.951857 137.167676 112.863315 140.344759 112.863315 C 141.251009 112.863315 142.219759 112.712274 143.240593 112.41019 L 144.032259 112.634149 L 145.448926 124.717483 C 144.579134 125.170608 143.428093 125.529983 141.990593 125.795608 C 140.553092 126.061233 138.964551 126.191441 137.224967 126.191441 Z M 176.469761 126.191441 C 172.464553 126.191441 168.985386 125.451858 166.037469 123.977899 C 163.084344 122.503941 160.818719 120.342482 159.230177 117.483107 C 157.641635 114.62894 156.849969 111.201857 156.849969 107.19144 C 156.849969 103.488315 157.641635 100.37894 159.230177 97.863314 C 160.818719 95.347689 163.277052 93.285189 166.605178 91.681022 C 169.928094 90.071647 174.277053 88.837272 179.646845 87.96748 C 183.391637 87.363314 186.235387 86.696647 188.183304 85.983105 C 190.131221 85.264355 191.443721 84.451855 192.126013 83.540397 C 192.803096 82.634147 193.146846 81.483105 193.146846 80.082063 C 193.146846 78.076855 192.443721 76.545605 191.047887 75.488313 C 189.646846 74.431021 187.323929 73.899771 184.06872 73.899771 C 180.594762 73.899771 177.282262 74.675813 174.146845 76.227896 C 171.006219 77.774771 168.287469 79.816438 165.980177 82.352897 L 164.844761 82.352897 L 158.266635 72.425813 C 161.443719 68.910187 165.318719 66.170604 169.891636 64.201854 C 174.464553 62.238312 179.459345 61.253937 184.865595 61.253937 C 193.146846 61.253937 199.13643 63.009145 202.844763 66.529979 C 206.547888 70.045604 208.402055 75.035188 208.402055 81.49873 L 208.402055 108.665398 C 208.402055 111.462274 209.631222 112.863315 212.089555 112.863315 C 213.032264 112.863315 213.959347 112.69144 214.865597 112.352899 L 215.662472 112.582065 L 216.792681 123.524774 C 215.922889 124.092483 214.714556 124.556024 213.162472 124.915399 C 211.615597 125.274774 209.912472 125.451858 208.058305 125.451858 C 204.318722 125.451858 201.396846 124.733108 199.297888 123.300816 C 197.19893 121.863316 195.698929 119.613316 194.787471 116.550816 L 193.599971 116.436232 C 190.537471 122.941441 184.829137 126.191441 176.469761 126.191441 Z M 181.459345 114.451857 C 185.089554 114.451857 187.995804 113.233107 190.167679 110.795607 C 192.339554 108.352898 193.428096 104.962273 193.428096 100.613315 L 193.428096 94.259147 L 192.349971 94.035189 C 191.407262 94.790397 190.167679 95.425814 188.636429 95.936231 C 187.105179 96.446648 184.902054 96.946648 182.027054 97.436231 C 178.626012 98.003939 176.178095 98.977898 174.683303 100.358106 C 173.188511 101.738315 172.44372 103.696648 172.44372 106.227898 C 172.44372 108.91019 173.240595 110.951857 174.823928 112.352899 C 176.41247 113.75394 178.626012 114.451857 181.459345 114.451857 Z M 266.073934 110.082065 L 270.157268 121.712274 C 268.459351 123.108108 266.318726 124.207066 263.751017 124.998733 C 261.1781 125.795608 258.266642 126.191441 255.016642 126.191441 C 248.245808 126.191441 243.105183 124.347691 239.589557 120.660191 C 236.073932 116.972691 234.313515 111.613315 234.313515 104.582065 L 234.313515 74.863313 L 224.787473 74.863313 L 224.787473 62.389354 L 234.313515 62.389354 L 234.313515 50.196645 L 250.027058 47.644561 L 250.027058 62.389354 L 267.777059 62.389354 L 267.777059 74.863313 L 250.027058 74.863313 L 250.027058 103.446648 C 250.027058 106.550815 250.667683 108.806023 251.954141 110.227898 C 253.2406 111.644565 255.110392 112.352899 257.568725 112.352899 C 260.3656 112.352899 262.8031 111.59769 264.886434 110.082065 Z M 266.073934 110.082065 " stroke="#000000" stroke-width="8.421528" stroke-opacity="1" stroke-miterlimit="4"/><g fill="#000000" fill-opacity="1"><g transform="translate(40.913311, 188.8447)"><g><path d="M 32.109375 -62.1875 C 36.566406 -62.1875 40.375 -61.367188 43.53125 -59.734375 C 46.695312 -58.109375 49.085938 -55.828125 50.703125 -52.890625 C 52.316406 -49.953125 53.125 -46.539062 53.125 -42.65625 C 53.125 -38.769531 52.316406 -35.367188 50.703125 -32.453125 C 49.085938 -29.535156 46.695312 -27.257812 43.53125 -25.625 C 40.375 -24 36.566406 -23.1875 32.109375 -23.1875 L 20.375 -23.1875 L 20.375 0 L 8.078125 0 L 8.078125 -62.1875 Z M 30.5 -32.921875 C 37.332031 -32.921875 40.75 -36.164062 40.75 -42.65625 C 40.75 -49.175781 37.332031 -52.4375 30.5 -52.4375 L 20.375 -52.4375 L 20.375 -32.921875 Z M 30.5 -32.921875 "/></g></g></g><g fill="#000000" fill-opacity="1"><g transform="translate(101.395023, 188.8447)"><g><path d="M 19.484375 0.890625 C 15.253906 0.890625 12.023438 -0.25 9.796875 -2.53125 C 7.578125 -4.8125 6.46875 -8.28125 6.46875 -12.9375 L 6.46875 -65.75 L 18.25 -65.75 L 18.25 -13.390625 C 18.25 -10.535156 19.4375 -9.109375 21.8125 -9.109375 C 22.5 -9.109375 23.222656 -9.21875 23.984375 -9.4375 L 24.578125 -9.265625 L 25.640625 -0.21875 C 24.992188 0.125 24.128906 0.394531 23.046875 0.59375 C 21.972656 0.789062 20.785156 0.890625 19.484375 0.890625 Z M 19.484375 0.890625 "/></g></g></g><g fill="#000000" fill-opacity="1"><g transform="translate(132.019296, 188.8447)"><g><path d="M 18.296875 0.890625 C 15.285156 0.890625 12.671875 0.335938 10.453125 -0.765625 C 8.242188 -1.867188 6.546875 -3.488281 5.359375 -5.625 C 4.171875 -7.769531 3.578125 -10.347656 3.578125 -13.359375 C 3.578125 -16.140625 4.171875 -18.472656 5.359375 -20.359375 C 6.546875 -22.242188 8.382812 -23.785156 10.875 -24.984375 C 13.375 -26.191406 16.640625 -27.125 20.671875 -27.78125 C 23.472656 -28.226562 25.601562 -28.722656 27.0625 -29.265625 C 28.53125 -29.804688 29.519531 -30.414062 30.03125 -31.09375 C 30.539062 -31.769531 30.796875 -32.632812 30.796875 -33.6875 C 30.796875 -35.1875 30.269531 -36.332031 29.21875 -37.125 C 28.164062 -37.925781 26.421875 -38.328125 23.984375 -38.328125 C 21.378906 -38.328125 18.898438 -37.742188 16.546875 -36.578125 C 14.191406 -35.410156 12.148438 -33.878906 10.421875 -31.984375 L 9.5625 -31.984375 L 4.640625 -39.421875 C 7.015625 -42.066406 9.914062 -44.125 13.34375 -45.59375 C 16.78125 -47.070312 20.523438 -47.8125 24.578125 -47.8125 C 30.796875 -47.8125 35.289062 -46.488281 38.0625 -43.84375 C 40.84375 -41.207031 42.234375 -37.46875 42.234375 -32.625 L 42.234375 -12.25 C 42.234375 -10.15625 43.15625 -9.109375 45 -9.109375 C 45.707031 -9.109375 46.398438 -9.234375 47.078125 -9.484375 L 47.6875 -9.3125 L 48.53125 -1.109375 C 47.875 -0.679688 46.960938 -0.332031 45.796875 -0.0625 C 44.640625 0.207031 43.367188 0.34375 41.984375 0.34375 C 39.171875 0.34375 36.976562 -0.191406 35.40625 -1.265625 C 33.832031 -2.347656 32.707031 -4.039062 32.03125 -6.34375 L 31.140625 -6.421875 C 28.835938 -1.546875 24.554688 0.890625 18.296875 0.890625 Z M 22.03125 -7.90625 C 24.75 -7.90625 26.921875 -8.816406 28.546875 -10.640625 C 30.179688 -12.472656 31 -15.023438 31 -18.296875 L 31 -23.046875 L 30.203125 -23.21875 C 29.492188 -22.65625 28.5625 -22.179688 27.40625 -21.796875 C 26.257812 -21.410156 24.609375 -21.035156 22.453125 -20.671875 C 19.898438 -20.242188 18.0625 -19.507812 16.9375 -18.46875 C 15.820312 -17.4375 15.265625 -15.972656 15.265625 -14.078125 C 15.265625 -12.066406 15.859375 -10.535156 17.046875 -9.484375 C 18.242188 -8.429688 19.90625 -7.90625 22.03125 -7.90625 Z M 22.03125 -7.90625 "/></g></g></g><g fill="#000000" fill-opacity="1"><g transform="translate(185.142985, 188.8447)"><g><path d="M 32.375 -11.1875 L 35.4375 -2.46875 C 34.15625 -1.414062 32.550781 -0.59375 30.625 0 C 28.695312 0.59375 26.515625 0.890625 24.078125 0.890625 C 18.992188 0.890625 15.132812 -0.488281 12.5 -3.25 C 9.863281 -6.019531 8.546875 -10.039062 8.546875 -15.3125 L 8.546875 -37.59375 L 1.40625 -37.59375 L 1.40625 -46.953125 L 8.546875 -46.953125 L 8.546875 -56.109375 L 20.328125 -58.015625 L 20.328125 -46.953125 L 33.640625 -46.953125 L 33.640625 -37.59375 L 20.328125 -37.59375 L 20.328125 -16.15625 C 20.328125 -13.832031 20.804688 -12.140625 21.765625 -11.078125 C 22.734375 -10.015625 24.140625 -9.484375 25.984375 -9.484375 C 28.085938 -9.484375 29.914062 -10.050781 31.46875 -11.1875 Z M 32.375 -11.1875 "/></g></g></g><g clip-path="url(#9919559a03)"><g clip-path="url(#5e0c31f22a)"><path fill="#000000" d="M 236.199219 150.601562 L 256.609375 150.601562 L 256.609375 171.011719 L 236.199219 171.011719 Z M 236.199219 150.601562 " fill-opacity="1" fill-rule="nonzero"/></g></g><path fill="#000000" d="M 224.605469 175.546875 C 229.074219 173.917969 234.015625 176.226562 235.640625 180.707031 C 236.207031 182.269531 236.292969 183.890625 235.980469 185.40625 C 237.3125 185.71875 238.46875 186.679688 238.972656 188.066406 C 239.523438 189.59375 239.140625 191.230469 238.117188 192.351562 C 244.007812 194.714844 250.757812 195 257.191406 192.65625 C 271.085938 187.597656 278.253906 172.210938 273.203125 158.289062 C 268.15625 144.367188 252.800781 137.1875 238.90625 142.246094 C 225.074219 147.28125 217.910156 162.5625 222.835938 176.433594 C 223.378906 176.078125 223.96875 175.777344 224.605469 175.546875 Z M 245.109375 159.34375 C 249.578125 157.714844 254.519531 160.023438 256.144531 164.503906 C 257.765625 168.980469 255.460938 173.933594 250.992188 175.558594 C 246.519531 177.1875 241.582031 174.878906 239.957031 170.398438 C 238.332031 165.917969 240.640625 160.96875 245.109375 159.34375 Z M 245.109375 159.34375 " fill-opacity="1" fill-rule="nonzero"/><g clip-path="url(#807ccad8da)"><g clip-path="url(#afb901d083)"><g clip-path="url(#196105f4a0)"><path fill="#ffffff" d="M 331.917969 140.195312 C 336.683594 143.390625 344.488281 150.863281 359.773438 142.136719 C 374.519531 133.714844 383.464844 121.265625 380.425781 113.296875 C 380.472656 113.394531 380.527344 113.488281 380.570312 113.585938 C 380.53125 113.503906 380.5 113.421875 380.460938 113.34375 C 380.402344 113.195312 380.328125 113.054688 380.261719 112.910156 C 380.191406 112.753906 380.128906 112.597656 380.050781 112.445312 C 379.996094 112.308594 379.929688 112.179688 379.867188 112.046875 C 379.804688 111.902344 379.746094 111.761719 379.675781 111.621094 C 379.625 111.496094 379.5625 111.375 379.503906 111.253906 C 379.554688 111.359375 379.589844 111.472656 379.632812 111.582031 C 375.730469 104.519531 360.265625 102.597656 344.332031 108.28125 C 327.761719 114.1875 328.402344 124.5 327.203125 129.851562 C 326.3125 133.804688 321.503906 135.660156 321.503906 135.660156 C 321.503906 135.660156 317.554688 137.21875 309.042969 140.335938 C 300.898438 143.320312 258.121094 158.636719 250.648438 162.042969 C 243.625 165.246094 236.710938 167.429688 239.222656 174.238281 C 239.179688 174.164062 239.136719 174.101562 239.097656 174.023438 L 239.035156 173.894531 C 239.144531 174.152344 239.265625 174.414062 239.398438 174.683594 C 239.523438 174.984375 239.660156 175.289062 239.820312 175.605469 L 239.835938 175.636719 C 239.90625 175.804688 239.976562 175.972656 240.058594 176.144531 C 240.003906 176.019531 239.960938 175.894531 239.914062 175.769531 C 243.996094 183.390625 255.796875 176.113281 255.796875 176.113281 C 255.796875 176.113281 303.960938 151.082031 311.90625 146.734375 C 320.503906 142.027344 323.699219 140.472656 323.699219 140.472656 C 323.699219 140.472656 328.480469 137.890625 331.917969 140.195312 " fill-opacity="1" fill-rule="nonzero"/></g></g></g><path stroke-linecap="butt" transform="matrix(0.649612, 0, 0, 0.649612, 278.295161, 95.094675)" fill="none" stroke-linejoin="miter" d="M 36.238192 145.373742 C 30.513624 145.373742 25.462534 143.990706 21.07891 141.21862 C 16.689273 138.446534 13.249721 134.255332 10.760256 128.645015 C 8.276804 123.034697 7.032071 116.125529 7.032071 107.917508 C 7.032071 99.667395 8.30687 92.740187 10.86248 87.12987 C 13.412078 81.519552 16.94784 77.328351 21.469768 74.556265 C 25.985683 71.784179 31.217168 70.395129 37.152199 70.395129 C 41.650073 70.395129 45.546628 71.170832 48.841863 72.722238 C 52.137097 74.273644 54.92121 76.684938 57.188187 79.95612 L 58.56521 79.631407 L 58.56521 42.764467 L 76.70704 42.764467 L 76.70704 144.002732 L 58.56521 144.002732 L 58.56521 134.634164 L 57.188187 134.375596 C 55.179778 137.779068 52.431744 140.460956 48.938074 142.427273 C 45.444404 144.39359 41.21111 145.373742 36.238192 145.373742 Z M 42.13113 129.985959 C 47.236338 129.985959 51.27721 128.163959 54.241718 124.519958 C 57.21224 120.875958 58.697501 115.337799 58.697501 107.917508 C 58.697501 100.497217 57.21224 94.953045 54.241718 91.284992 C 51.27721 87.616939 47.236338 85.782912 42.13113 85.782912 C 36.803433 85.782912 32.732495 87.56282 29.918317 91.122636 C 27.098125 94.682451 25.691036 100.280742 25.691036 107.917508 C 25.691036 115.512182 27.098125 121.092433 29.918317 124.652249 C 32.732495 128.206051 36.803433 129.985959 42.13113 129.985959 Z M 42.13113 129.985959 " stroke="#000000" stroke-width="9.722975" stroke-opacity="1" stroke-miterlimit="4"/><g fill="#000000" fill-opacity="1"><g transform="translate(278.650418, 188.63885)"><g><path d="M 23.1875 0.890625 C 19.46875 0.890625 16.179688 -0.0078125 13.328125 -1.8125 C 10.484375 -3.613281 8.253906 -6.332031 6.640625 -9.96875 C 5.023438 -13.613281 4.21875 -18.101562 4.21875 -23.4375 C 4.21875 -28.800781 5.046875 -33.300781 6.703125 -36.9375 C 8.359375 -40.582031 10.65625 -43.304688 13.59375 -45.109375 C 16.53125 -46.910156 19.925781 -47.8125 23.78125 -47.8125 C 26.695312 -47.8125 29.226562 -47.304688 31.375 -46.296875 C 33.519531 -45.296875 35.328125 -43.734375 36.796875 -41.609375 L 37.6875 -41.8125 L 37.6875 -65.765625 L 49.46875 -65.765625 L 49.46875 0 L 37.6875 0 L 37.6875 -6.078125 L 36.796875 -6.25 C 35.492188 -4.039062 33.707031 -2.296875 31.4375 -1.015625 C 29.164062 0.253906 26.414062 0.890625 23.1875 0.890625 Z M 27.015625 -9.109375 C 30.328125 -9.109375 32.945312 -10.289062 34.875 -12.65625 C 36.8125 -15.019531 37.78125 -18.613281 37.78125 -23.4375 C 37.78125 -28.257812 36.8125 -31.859375 34.875 -34.234375 C 32.945312 -36.617188 30.328125 -37.8125 27.015625 -37.8125 C 23.554688 -37.8125 20.910156 -36.65625 19.078125 -34.34375 C 17.253906 -32.039062 16.34375 -28.40625 16.34375 -23.4375 C 16.34375 -18.5 17.253906 -14.875 19.078125 -12.5625 C 20.910156 -10.257812 23.554688 -9.109375 27.015625 -9.109375 Z M 27.015625 -9.109375 "/></g></g></g><g clip-path="url(#ebe91c4484)"><path fill="#417ebe" d="M 288.933594 134.566406 C 288.875 135.386719 288.699219 136.191406 288.441406 136.984375 L 288.367188 137.203125 L 287.253906 136.152344 C 286.632812 135.574219 286.339844 135.085938 286.21875 134.542969 C 286.089844 134.007812 286.136719 133.433594 286.203125 132.660156 L 286.25 132.117188 C 286.292969 131.515625 285.949219 130.816406 285.445312 130.140625 C 284.691406 129.132812 283.582031 128.179688 282.886719 127.667969 L 279.007812 124.484375 L 278.644531 124.183594 L 279.117188 124.222656 C 279.71875 124.269531 280.308594 124.363281 280.894531 124.511719 C 281.484375 124.660156 282.046875 124.855469 282.59375 125.09375 C 283.195312 125.359375 283.765625 125.675781 284.304688 126.046875 C 284.847656 126.414062 285.351562 126.835938 285.808594 127.296875 C 286.503906 127.984375 287.132812 128.738281 287.644531 129.570312 C 288.15625 130.398438 288.550781 131.296875 288.765625 132.269531 C 288.933594 133.042969 288.984375 133.8125 288.933594 134.566406 Z M 277.035156 124.265625 C 277.179688 124.25 277.335938 124.226562 277.484375 124.214844 L 277.550781 124.214844 L 278.839844 125.496094 C 279.375 126.027344 279.90625 126.5625 280.59375 127.238281 L 281.195312 127.835938 L 281.941406 128.566406 C 282.113281 128.734375 282.273438 128.898438 282.449219 129.058594 C 282.476562 129.078125 282.507812 129.105469 282.527344 129.125 C 282.628906 129.214844 282.734375 129.328125 282.835938 129.449219 C 282.941406 129.574219 283.03125 129.707031 283.082031 129.84375 C 283.125 129.949219 283.140625 130.050781 283.132812 130.152344 C 283.121094 130.257812 283.078125 130.351562 283 130.445312 L 282.988281 130.453125 C 282.871094 130.578125 282.703125 130.609375 282.535156 130.585938 C 282.324219 130.546875 282.085938 130.441406 281.957031 130.355469 L 281.949219 130.351562 C 281.351562 129.898438 280.773438 129.40625 280.214844 128.902344 C 279.652344 128.402344 279.105469 127.875 278.558594 127.367188 C 278.269531 127.089844 277.96875 126.800781 277.667969 126.511719 C 277.050781 125.914062 276.425781 125.316406 275.785156 124.730469 L 275.582031 124.539062 L 275.851562 124.476562 C 275.972656 124.449219 276.097656 124.417969 276.21875 124.394531 C 276.339844 124.375 276.460938 124.347656 276.59375 124.328125 C 276.738281 124.304688 276.886719 124.285156 277.035156 124.265625 Z M 274.789062 124.789062 C 274.902344 124.746094 275.019531 124.714844 275.132812 124.675781 L 275.214844 124.648438 L 275.277344 124.71875 C 276.0625 125.53125 276.832031 126.351562 277.613281 127.171875 C 278.28125 127.875 278.941406 128.574219 279.613281 129.277344 C 279.996094 129.691406 280.394531 130.097656 280.785156 130.511719 L 280.929688 130.667969 C 281.070312 130.816406 281.21875 130.96875 281.371094 131.125 L 281.382812 131.132812 C 281.472656 131.222656 281.5625 131.359375 281.605469 131.5 C 281.65625 131.660156 281.640625 131.824219 281.492188 131.96875 C 281.492188 131.96875 281.488281 131.980469 281.484375 131.980469 C 281.34375 132.117188 281.175781 132.136719 281.011719 132.089844 C 280.875 132.046875 280.75 131.964844 280.648438 131.867188 C 280.648438 131.863281 280.640625 131.859375 280.640625 131.859375 C 280.390625 131.605469 280.152344 131.375 279.914062 131.160156 L 279.648438 130.90625 C 278.761719 130.0625 277.867188 129.222656 276.984375 128.371094 C 275.941406 127.382812 274.898438 126.394531 273.839844 125.394531 L 273.683594 125.246094 L 273.878906 125.15625 C 273.96875 125.113281 274.0625 125.078125 274.164062 125.035156 C 274.265625 124.992188 274.359375 124.957031 274.453125 124.914062 C 274.570312 124.867188 274.683594 124.824219 274.789062 124.789062 Z M 273.015625 125.601562 C 273.128906 125.539062 273.238281 125.472656 273.339844 125.421875 L 273.445312 125.367188 L 279.867188 132.417969 L 279.882812 132.4375 C 279.960938 132.566406 280.070312 132.796875 280.101562 133.007812 C 280.125 133.183594 280.097656 133.351562 279.976562 133.464844 L 279.964844 133.46875 C 279.875 133.546875 279.777344 133.597656 279.671875 133.605469 C 279.570312 133.613281 279.46875 133.597656 279.367188 133.558594 C 279.230469 133.5 279.09375 133.417969 278.960938 133.3125 C 278.839844 133.203125 278.730469 133.097656 278.640625 133 C 278.617188 132.976562 278.59375 132.945312 278.570312 132.925781 C 278.332031 132.660156 278.074219 132.390625 277.816406 132.136719 L 277.574219 131.890625 C 277.253906 131.566406 276.945312 131.25 276.636719 130.945312 L 275.660156 129.957031 C 274.476562 128.765625 273.292969 127.578125 272.109375 126.386719 L 271.988281 126.265625 L 272.125 126.160156 C 272.214844 126.09375 272.316406 126.027344 272.410156 125.964844 C 272.511719 125.902344 272.605469 125.839844 272.707031 125.777344 C 272.800781 125.726562 272.90625 125.664062 273.015625 125.601562 Z M 273.015625 125.601562 " fill-opacity="1" fill-rule="nonzero"/></g><g clip-path="url(#db8c0eff77)"><path fill="#000000" d="M 270.128906 134.78125 C 270.316406 135.128906 270.480469 135.488281 270.585938 135.867188 L 270.59375 135.921875 C 270.550781 136.363281 270.585938 136.824219 270.671875 137.273438 C 270.777344 137.785156 270.941406 138.28125 271.152344 138.746094 C 271.382812 139.253906 271.664062 139.746094 271.992188 140.210938 C 272.335938 140.699219 272.722656 141.152344 273.132812 141.570312 C 273.714844 142.152344 274.398438 142.691406 275.132812 143.125 C 275.796875 143.515625 276.503906 143.820312 277.238281 143.988281 C 277.875 144.136719 278.554688 144.183594 279.179688 144.054688 C 279.710938 143.949219 280.203125 143.71875 280.605469 143.3125 C 281 142.917969 281.234375 142.421875 281.34375 141.890625 C 281.472656 141.261719 281.425781 140.585938 281.277344 139.953125 C 281.109375 139.21875 280.800781 138.511719 280.410156 137.839844 C 279.980469 137.105469 279.4375 136.429688 278.855469 135.847656 C 278.4375 135.429688 277.984375 135.042969 277.5 134.707031 C 277.039062 134.382812 276.546875 134.097656 276.035156 133.867188 C 275.574219 133.660156 275.074219 133.492188 274.566406 133.382812 C 274.117188 133.300781 273.652344 133.257812 273.207031 133.300781 L 273.15625 133.292969 C 272.769531 133.183594 272.394531 133.019531 272.035156 132.820312 C 271.675781 132.625 271.34375 132.390625 271.023438 132.152344 C 270.617188 131.847656 270.234375 131.507812 269.863281 131.144531 C 269.492188 130.785156 269.144531 130.410156 268.816406 130.023438 L 268.746094 129.945312 L 268.800781 129.859375 C 268.921875 129.648438 269.054688 129.433594 269.191406 129.230469 C 269.328125 129.023438 269.480469 128.820312 269.628906 128.617188 C 269.808594 128.386719 269.996094 128.167969 270.191406 127.949219 C 270.378906 127.726562 270.582031 127.515625 270.789062 127.3125 C 270.84375 127.253906 270.910156 127.195312 270.976562 127.128906 C 271.035156 127.074219 271.097656 127.015625 271.167969 126.953125 C 271.226562 126.902344 271.277344 126.851562 271.328125 126.8125 C 271.375 126.769531 271.433594 126.726562 271.492188 126.679688 L 271.605469 126.578125 L 271.695312 126.695312 C 272.054688 127.132812 272.609375 127.804688 273.160156 128.46875 C 274.496094 130.082031 275.828125 131.699219 277.175781 133.378906 C 277.6875 134.070312 278.640625 135.175781 279.65625 135.929688 C 280.324219 136.433594 281.023438 136.78125 281.628906 136.738281 L 282.167969 136.691406 C 282.953125 136.628906 283.523438 136.582031 284.0625 136.703125 C 284.601562 136.828125 285.085938 137.125 285.667969 137.742188 L 286.375 138.496094 L 287.316406 139.492188 L 287.261719 139.582031 C 287.0625 139.949219 286.839844 140.300781 286.617188 140.648438 C 286.390625 141 286.160156 141.34375 285.914062 141.6875 C 285.65625 142.050781 285.394531 142.410156 285.117188 142.753906 C 284.84375 143.109375 284.5625 143.449219 284.289062 143.792969 C 283.796875 144.386719 283.289062 144.972656 282.761719 145.566406 C 282.253906 146.140625 281.726562 146.722656 281.207031 147.296875 L 281.007812 147.519531 C 280.128906 148.492188 279.253906 149.457031 278.417969 150.480469 L 278.300781 150.617188 L 278.191406 150.480469 C 277.359375 149.464844 276.472656 148.488281 275.597656 147.515625 L 275.402344 147.292969 C 274.878906 146.722656 274.355469 146.140625 273.839844 145.566406 C 273.324219 144.972656 272.8125 144.386719 272.320312 143.792969 C 271.617188 142.933594 270.910156 142.035156 270.269531 141.082031 C 269.636719 140.136719 269.054688 139.148438 268.605469 138.121094 C 268.191406 137.195312 267.898438 136.242188 267.75 135.269531 C 267.601562 134.296875 267.621094 133.304688 267.839844 132.300781 L 267.890625 132.046875 L 268.082031 132.226562 C 268.335938 132.46875 268.578125 132.722656 268.816406 132.988281 C 269.054688 133.246094 269.277344 133.523438 269.488281 133.800781 C 269.726562 134.101562 269.941406 134.4375 270.128906 134.78125 Z M 270.128906 134.78125 " fill-opacity="1" fill-rule="nonzero"/></g><g clip-path="url(#2e5204527e)"><path fill="#000000" d="M 246.085938 173.421875 L 234.480469 173.421875 C 233.933594 157.160156 221.597656 143.835938 205.765625 141.738281 C 206.835938 140.011719 207.554688 137.609375 207.761719 134.792969 C 207.867188 133.332031 207.160156 131.9375 205.917969 131.15625 C 203.175781 129.421875 199.628906 129.421875 196.886719 131.15625 C 195.644531 131.9375 194.9375 133.332031 195.042969 134.792969 C 195.25 137.609375 195.96875 140.011719 197.039062 141.738281 C 181.207031 143.835938 168.871094 157.160156 168.324219 173.425781 L 156.71875 173.425781 C 155.835938 173.425781 155.121094 174.140625 155.121094 175.019531 C 155.121094 175.902344 155.835938 176.617188 156.71875 176.617188 L 159.683594 176.617188 L 161.496094 180.332031 C 162.074219 181.511719 163.296875 182.273438 164.609375 182.273438 L 238.195312 182.273438 C 239.507812 182.273438 240.730469 181.511719 241.308594 180.332031 L 243.121094 176.617188 L 246.085938 176.617188 C 246.96875 176.617188 247.683594 175.902344 247.683594 175.019531 C 247.683594 174.140625 246.96875 173.421875 246.085938 173.421875 Z M 198.230469 134.5625 C 198.210938 134.28125 198.347656 134.007812 198.59375 133.855469 C 199.445312 133.316406 200.425781 133.046875 201.402344 133.046875 C 202.378906 133.046875 203.359375 133.316406 204.210938 133.855469 C 204.457031 134.007812 204.59375 134.28125 204.574219 134.5625 C 204.253906 139 202.496094 141.453125 201.402344 141.453125 C 200.308594 141.453125 198.550781 139 198.230469 134.5625 Z M 201.402344 144.648438 C 217.515625 144.648438 230.6875 157.457031 231.28125 173.421875 L 171.523438 173.421875 C 172.117188 157.457031 185.289062 144.648438 201.402344 144.648438 Z M 238.4375 178.929688 C 238.390625 179.019531 238.296875 179.082031 238.195312 179.082031 L 164.609375 179.082031 C 164.507812 179.082031 164.414062 179.019531 164.367188 178.929688 L 163.238281 176.617188 L 239.566406 176.617188 Z M 238.4375 178.929688 " fill-opacity="1" fill-rule="nonzero"/></g><g clip-path="url(#c6657361b6)"><path fill="#000000" d="M 201.894531 123.941406 C 202.148438 124.089844 202.425781 124.160156 202.699219 124.160156 C 203.25 124.160156 203.785156 123.875 204.082031 123.367188 C 204.527344 122.605469 204.269531 121.628906 203.507812 121.183594 C 201.675781 120.109375 200.644531 119.003906 200.4375 117.890625 C 200.078125 115.941406 202.132812 113.386719 204.117188 110.917969 C 207.457031 106.765625 212.027344 101.082031 205.484375 95.683594 C 204.804688 95.121094 203.796875 95.21875 203.238281 95.898438 C 202.675781 96.582031 202.773438 97.585938 203.453125 98.148438 C 207.171875 101.21875 205.75 103.785156 201.628906 108.914062 C 199.191406 111.945312 196.671875 115.078125 197.296875 118.46875 C 197.683594 120.566406 199.1875 122.355469 201.894531 123.941406 Z M 201.894531 123.941406 " fill-opacity="1" fill-rule="nonzero"/></g><path fill="#000000" d="M 188.796875 129.394531 C 189.050781 129.542969 189.328125 129.613281 189.601562 129.613281 C 190.152344 129.613281 190.683594 129.332031 190.984375 128.824219 C 191.429688 128.0625 191.171875 127.082031 190.410156 126.636719 C 188.871094 125.738281 188.003906 124.820312 187.839844 123.917969 C 187.542969 122.3125 189.300781 120.128906 190.996094 118.015625 C 192.5625 116.070312 194.179688 114.058594 194.824219 111.867188 C 195.640625 109.097656 194.742188 106.609375 192.15625 104.476562 C 191.476562 103.914062 190.46875 104.011719 189.90625 104.691406 C 189.347656 105.375 189.441406 106.378906 190.125 106.941406 C 193.230469 109.503906 192.082031 111.570312 188.507812 116.015625 C 186.359375 118.6875 184.136719 121.453125 184.695312 124.496094 C 185.042969 126.382812 186.386719 127.984375 188.796875 129.394531 Z M 188.796875 129.394531 " fill-opacity="1" fill-rule="nonzero"/><path fill="#000000" d="M 207.777344 124.496094 C 208.125 126.382812 209.464844 127.984375 211.875 129.394531 C 212.128906 129.542969 212.410156 129.613281 212.683594 129.613281 C 213.230469 129.613281 213.765625 129.332031 214.0625 128.824219 C 214.507812 128.0625 214.253906 127.082031 213.492188 126.636719 C 211.949219 125.738281 211.085938 124.820312 210.917969 123.917969 C 210.625 122.3125 212.378906 120.128906 214.078125 118.015625 C 215.644531 116.070312 217.261719 114.058594 217.90625 111.867188 C 218.71875 109.097656 217.824219 106.609375 215.238281 104.476562 C 214.554688 103.914062 213.550781 104.011719 212.988281 104.691406 C 212.425781 105.375 212.523438 106.378906 213.203125 106.941406 C 216.308594 109.503906 215.160156 111.570312 211.585938 116.015625 C 209.4375 118.6875 207.214844 121.453125 207.777344 124.496094 Z M 207.777344 124.496094 " fill-opacity="1" fill-rule="nonzero"/><path fill="#417ebe" d="M 147.9375 195.777344 C 147.9375 195.777344 129.753906 194.902344 145.660156 199.976562 C 149.699219 201.273438 176.140625 206.164062 176.140625 206.164062 C 176.140625 206.164062 176.253906 208.8125 177.464844 208.8125 L 232.457031 208.8125 C 233.667969 208.8125 233.777344 206.164062 233.777344 206.164062 C 233.777344 206.164062 260.144531 201.015625 264.261719 199.976562 C 279.558594 196.113281 261.984375 195.777344 261.984375 195.777344 L 147.9375 195.777344 " fill-opacity="1" fill-rule="nonzero"/></svg>