<svg xmlns="http://www.w3.org/2000/svg" xmlns:xlink="http://www.w3.org/1999/xlink" width="426" zoomAndPan="magnify" viewBox="0 0 319.5 113.999999" height="152" preserveAspectRatio="xMidYMid meet" version="1.0"><defs><g/><clipPath id="e66a399c68"><path d="M 0 0.0898438 L 227 0.0898438 L 227 113.910156 L 0 113.910156 Z M 0 0.0898438 " clip-rule="nonzero"/></clipPath><clipPath id="d9ed73ff8c"><path d="M 207.621094 55.679688 L 226.875 55.679688 L 226.875 74.933594 L 207.621094 74.933594 Z M 207.621094 55.679688 " clip-rule="nonzero"/></clipPath><clipPath id="26091d487f"><path d="M 217.25 55.679688 C 211.929688 55.679688 207.621094 59.988281 207.621094 65.308594 C 207.621094 70.625 211.929688 74.933594 217.25 74.933594 C 222.566406 74.933594 226.875 70.625 226.875 65.308594 C 226.875 59.988281 222.566406 55.679688 217.25 55.679688 Z M 217.25 55.679688 " clip-rule="nonzero"/></clipPath><clipPath id="fb7d110f63"><path d="M 209 26 L 297 26 L 297 83 L 209 83 Z M 209 26 " clip-rule="nonzero"/></clipPath><clipPath id="14ada5695c"><path d="M 283.617188 26.015625 L 296.078125 53.335938 L 215.78125 89.957031 L 203.320312 62.636719 Z M 283.617188 26.015625 " clip-rule="nonzero"/></clipPath><clipPath id="f5679a4f3a"><path d="M 335.453125 2.371094 L 351.222656 36.941406 L 219.070312 97.214844 L 203.300781 62.644531 Z M 335.453125 2.371094 " clip-rule="nonzero"/></clipPath><clipPath id="7ba262f286"><path d="M 217 0.0898438 L 319 0.0898438 L 319 113.910156 L 217 113.910156 Z M 217 0.0898438 " clip-rule="nonzero"/></clipPath><clipPath id="3ef5b057a2"><path d="M 241 30.769531 L 257.460938 30.769531 L 257.460938 44 L 241 44 Z M 241 30.769531 " clip-rule="nonzero"/></clipPath><clipPath id="3a73894639"><path d="M 237.238281 33 L 256 33 L 256 55.882812 L 237.238281 55.882812 Z M 237.238281 33 " clip-rule="nonzero"/></clipPath><clipPath id="108209add1"><path d="M 131.117188 36 L 206.496094 36 L 206.496094 36.433594 L 131.117188 36.433594 Z M 131.117188 36 " clip-rule="nonzero"/></clipPath><clipPath id="bbacfd97d2"><path d="M 170 3.335938 L 182 3.335938 L 182 31 L 170 31 Z M 170 3.335938 " clip-rule="nonzero"/></clipPath><clipPath id="62258120c7"><path d="M 116 98 L 240 98 L 240 110.894531 L 116 110.894531 Z M 116 98 " clip-rule="nonzero"/></clipPath></defs><g clip-path="url(#e66a399c68)"><path stroke-linecap="butt" transform="matrix(0.707571, 0, 0, 0.707571, 1.726006, 3.311725)" fill="none" stroke-linejoin="miter" d="M 73.43088 42.084969 C 79.365573 42.084969 84.439045 43.172536 88.656818 45.34767 C 92.86907 47.517283 96.054482 50.564679 98.213054 54.478816 C 100.366105 58.387432 101.442631 62.936443 101.442631 68.114808 C 101.442631 73.293173 100.366105 77.831142 98.213054 81.728718 C 96.054482 85.620772 92.86907 88.657127 88.656818 90.832261 C 84.439045 93.001874 79.365573 94.089441 73.43088 94.089441 L 57.774332 94.089441 L 57.774332 124.99953 L 41.383538 124.99953 L 41.383538 42.084969 Z M 71.272308 81.104885 C 80.386892 81.104885 84.941424 76.776699 84.941424 68.114808 C 84.941424 59.419793 80.386892 55.069525 71.272308 55.069525 L 57.774332 55.069525 L 57.774332 81.104885 Z M 137.227449 126.191989 C 131.590871 126.191989 127.290289 124.668291 124.325703 121.626416 C 121.355596 118.584541 119.870543 113.958241 119.870543 107.758557 L 119.870543 37.320652 L 135.582297 37.320652 L 135.582297 107.134724 C 135.582297 110.95501 137.172243 112.865153 140.346614 112.865153 C 141.251999 112.865153 142.218112 112.710575 143.239431 112.40694 L 144.034404 112.638807 L 145.447689 124.717977 C 144.580948 125.17067 143.427133 125.529512 141.991766 125.794503 C 140.556398 126.059494 138.966452 126.191989 137.227449 126.191989 Z M 176.473712 126.191989 C 172.465724 126.191989 168.982197 125.452223 166.034173 123.978211 C 163.086149 122.504199 160.817164 120.340106 159.232739 117.485933 C 157.642793 114.63176 156.84782 111.197919 156.84782 107.189931 C 156.84782 103.485578 157.642793 100.377455 159.232739 97.860041 C 160.817164 95.348148 163.273851 93.288947 166.602799 91.68244 C 169.931748 90.075932 174.276495 88.833787 179.648083 87.967046 C 183.39108 87.359775 186.234212 86.697298 188.182999 85.979614 C 190.131787 85.26193 191.4457 84.450395 192.124739 83.539489 C 192.803779 82.634103 193.146059 81.480289 193.146059 80.083565 C 193.146059 78.079571 192.444937 76.544832 191.048214 75.490389 C 189.64597 74.430425 187.321779 73.900443 184.070119 73.900443 C 180.592113 73.900443 177.285247 74.673334 174.144 76.224635 C 171.008274 77.775936 168.286596 79.818575 165.978966 82.35255 L 164.847234 82.35255 L 158.266626 72.426431 C 161.440997 68.909781 165.316489 66.171541 169.893104 64.200671 C 174.469718 62.235321 179.460381 61.252647 184.865092 61.252647 C 193.146059 61.252647 199.135958 63.013732 202.840311 66.530383 C 206.550184 70.041513 208.3996 75.037696 208.3996 81.502371 L 208.3996 108.663943 C 208.3996 111.462909 209.630703 112.865153 212.08739 112.865153 C 213.031421 112.865153 213.958889 112.694013 214.864275 112.351733 L 215.659247 112.57808 L 216.7965 123.525518 C 215.924238 124.094144 214.715217 124.557879 213.163916 124.91672 C 211.612615 125.275562 209.912256 125.452223 208.06284 125.452223 C 204.319843 125.452223 201.399422 124.734539 199.296057 123.299172 C 197.198212 121.863804 195.696596 119.611381 194.791211 116.547423 L 193.598752 116.43701 C 190.534794 122.94033 184.826447 126.191989 176.473712 126.191989 Z M 181.464375 114.449578 C 185.091438 114.449578 187.995297 113.229516 190.164911 110.794911 C 192.340045 108.354787 193.427612 104.95959 193.427612 100.614843 L 193.427612 94.260581 L 192.351086 94.034234 C 191.407056 94.790563 190.164911 95.425437 188.635692 95.933336 C 187.106473 96.446756 184.903736 96.943614 182.02748 97.434952 C 178.626763 98.003578 176.175597 98.975211 174.685023 100.355373 C 173.188928 101.735534 172.443641 103.695363 172.443641 106.229338 C 172.443641 108.912372 173.238614 110.95501 174.82856 112.351733 C 176.412985 113.753977 178.626763 114.449578 181.464375 114.449578 Z M 266.073774 110.082748 L 270.159051 121.709226 C 268.458693 123.11147 266.322203 124.204557 263.749583 124.99953 C 261.176962 125.794503 258.267583 126.191989 255.015923 126.191989 C 248.247613 126.191989 243.107892 124.348094 239.591242 120.660303 C 236.074591 116.972513 234.313506 111.617488 234.313506 104.584186 L 234.313506 74.866556 L 224.784873 74.866556 L 224.784873 62.389899 L 234.313506 62.389899 L 234.313506 50.194795 L 250.02526 47.644258 L 250.02526 62.389899 L 267.774133 62.389899 L 267.774133 74.866556 L 250.02526 74.866556 L 250.02526 103.446934 C 250.02526 106.549536 250.665655 108.807479 251.951965 110.226285 C 253.238275 111.645091 255.109774 112.351733 257.566461 112.351733 C 260.365428 112.351733 262.805552 111.595405 264.881315 110.082748 Z M 266.073774 110.082748 " stroke="#000000" stroke-width="8.421528" stroke-opacity="1" stroke-miterlimit="4"/></g><g fill="#000000" fill-opacity="1"><g transform="translate(23.384323, 91.758145)"><g><path d="M 30.296875 -58.671875 C 34.492188 -58.671875 38.082031 -57.898438 41.0625 -56.359375 C 44.050781 -54.828125 46.304688 -52.675781 47.828125 -49.90625 C 49.359375 -47.132812 50.125 -43.914062 50.125 -40.25 C 50.125 -36.582031 49.359375 -33.367188 47.828125 -30.609375 C 46.304688 -27.859375 44.050781 -25.710938 41.0625 -24.171875 C 38.082031 -22.640625 34.492188 -21.875 30.296875 -21.875 L 19.21875 -21.875 L 19.21875 0 L 7.625 0 L 7.625 -58.671875 Z M 28.78125 -31.0625 C 35.21875 -31.0625 38.4375 -34.125 38.4375 -40.25 C 38.4375 -46.40625 35.21875 -49.484375 28.78125 -49.484375 L 19.21875 -49.484375 L 19.21875 -31.0625 Z M 28.78125 -31.0625 "/></g></g></g><g fill="#000000" fill-opacity="1"><g transform="translate(80.444496, 91.758145)"><g><path d="M 18.375 0.84375 C 14.394531 0.84375 11.351562 -0.234375 9.25 -2.390625 C 7.144531 -4.546875 6.09375 -7.816406 6.09375 -12.203125 L 6.09375 -62.046875 L 17.21875 -62.046875 L 17.21875 -12.640625 C 17.21875 -9.941406 18.34375 -8.59375 20.59375 -8.59375 C 21.226562 -8.59375 21.910156 -8.695312 22.640625 -8.90625 L 23.203125 -8.75 L 24.203125 -0.203125 C 23.585938 0.117188 22.769531 0.375 21.75 0.5625 C 20.726562 0.75 19.601562 0.84375 18.375 0.84375 Z M 18.375 0.84375 "/></g></g></g><g fill="#000000" fill-opacity="1"><g transform="translate(109.33631, 91.758145)"><g><path d="M 17.25 0.84375 C 14.414062 0.84375 11.953125 0.320312 9.859375 -0.71875 C 7.773438 -1.757812 6.171875 -3.289062 5.046875 -5.3125 C 3.929688 -7.332031 3.375 -9.757812 3.375 -12.59375 C 3.375 -15.21875 3.929688 -17.421875 5.046875 -19.203125 C 6.171875 -20.984375 7.910156 -22.441406 10.265625 -23.578125 C 12.628906 -24.710938 15.707031 -25.585938 19.5 -26.203125 C 22.144531 -26.628906 24.15625 -27.097656 25.53125 -27.609375 C 26.914062 -28.117188 27.847656 -28.691406 28.328125 -29.328125 C 28.804688 -29.972656 29.046875 -30.789062 29.046875 -31.78125 C 29.046875 -33.195312 28.550781 -34.28125 27.5625 -35.03125 C 26.570312 -35.78125 24.929688 -36.15625 22.640625 -36.15625 C 20.171875 -36.15625 17.828125 -35.601562 15.609375 -34.5 C 13.390625 -33.40625 11.460938 -31.960938 9.828125 -30.171875 L 9.03125 -30.171875 L 4.375 -37.203125 C 6.625 -39.691406 9.363281 -41.628906 12.59375 -43.015625 C 15.832031 -44.410156 19.367188 -45.109375 23.203125 -45.109375 C 29.054688 -45.109375 33.289062 -43.863281 35.90625 -41.375 C 38.53125 -38.882812 39.84375 -35.351562 39.84375 -30.78125 L 39.84375 -11.5625 C 39.84375 -9.582031 40.710938 -8.59375 42.453125 -8.59375 C 43.128906 -8.59375 43.785156 -8.710938 44.421875 -8.953125 L 44.984375 -8.78125 L 45.78125 -1.046875 C 45.164062 -0.640625 44.3125 -0.304688 43.21875 -0.046875 C 42.125 0.203125 40.921875 0.328125 39.609375 0.328125 C 36.960938 0.328125 34.894531 -0.179688 33.40625 -1.203125 C 31.925781 -2.222656 30.863281 -3.816406 30.21875 -5.984375 L 29.375 -6.0625 C 27.207031 -1.457031 23.164062 0.84375 17.25 0.84375 Z M 20.78125 -7.46875 C 23.351562 -7.46875 25.40625 -8.328125 26.9375 -10.046875 C 28.476562 -11.773438 29.25 -14.175781 29.25 -17.25 L 29.25 -21.75 L 28.5 -21.90625 C 27.820312 -21.375 26.941406 -20.925781 25.859375 -20.5625 C 24.773438 -20.207031 23.21875 -19.851562 21.1875 -19.5 C 18.78125 -19.101562 17.046875 -18.414062 15.984375 -17.4375 C 14.929688 -16.457031 14.40625 -15.070312 14.40625 -13.28125 C 14.40625 -11.382812 14.96875 -9.941406 16.09375 -8.953125 C 17.21875 -7.960938 18.78125 -7.46875 20.78125 -7.46875 Z M 20.78125 -7.46875 "/></g></g></g><g fill="#000000" fill-opacity="1"><g transform="translate(159.454713, 91.758145)"><g><path d="M 30.546875 -10.546875 L 33.421875 -2.328125 C 32.222656 -1.335938 30.710938 -0.5625 28.890625 0 C 27.078125 0.5625 25.019531 0.84375 22.71875 0.84375 C 17.925781 0.84375 14.285156 -0.457031 11.796875 -3.0625 C 9.304688 -5.675781 8.0625 -9.472656 8.0625 -14.453125 L 8.0625 -35.46875 L 1.328125 -35.46875 L 1.328125 -44.296875 L 8.0625 -44.296875 L 8.0625 -52.9375 L 19.1875 -54.734375 L 19.1875 -44.296875 L 31.75 -44.296875 L 31.75 -35.46875 L 19.1875 -35.46875 L 19.1875 -15.25 C 19.1875 -13.050781 19.640625 -11.453125 20.546875 -10.453125 C 21.453125 -9.453125 22.773438 -8.953125 24.515625 -8.953125 C 26.492188 -8.953125 28.222656 -9.484375 29.703125 -10.546875 Z M 30.546875 -10.546875 "/></g></g></g><g clip-path="url(#d9ed73ff8c)"><g clip-path="url(#26091d487f)"><path fill="#000000" d="M 207.621094 55.679688 L 226.875 55.679688 L 226.875 74.933594 L 207.621094 74.933594 Z M 207.621094 55.679688 " fill-opacity="1" fill-rule="nonzero"/></g></g><path fill="#000000" d="M 196.6875 79.210938 C 200.902344 77.675781 205.5625 79.855469 207.09375 84.082031 C 207.628906 85.554688 207.710938 87.082031 207.414062 88.511719 C 208.671875 88.808594 209.761719 89.714844 210.238281 91.023438 C 210.761719 92.464844 210.398438 94.011719 209.429688 95.066406 C 214.988281 97.296875 221.359375 97.5625 227.429688 95.355469 C 240.535156 90.582031 247.296875 76.0625 242.535156 62.929688 C 237.769531 49.796875 223.285156 43.023438 210.179688 47.792969 C 197.128906 52.546875 190.367188 66.960938 195.015625 80.050781 C 195.527344 79.714844 196.085938 79.429688 196.6875 79.210938 Z M 216.027344 63.925781 C 220.246094 62.390625 224.90625 64.570312 226.4375 68.792969 C 227.96875 73.019531 225.796875 77.6875 221.578125 79.226562 C 217.359375 80.761719 212.699219 78.582031 211.167969 74.355469 C 209.636719 70.128906 211.8125 65.460938 216.027344 63.925781 Z M 216.027344 63.925781 " fill-opacity="1" fill-rule="nonzero"/><g clip-path="url(#fb7d110f63)"><g clip-path="url(#14ada5695c)"><g clip-path="url(#f5679a4f3a)"><path fill="#ffffff" d="M 297.929688 45.859375 C 302.421875 48.875 309.785156 55.925781 324.207031 47.691406 C 338.117188 39.746094 346.554688 28.003906 343.6875 20.484375 C 343.734375 20.574219 343.785156 20.664062 343.824219 20.757812 C 343.789062 20.679688 343.757812 20.601562 343.722656 20.527344 C 343.667969 20.386719 343.597656 20.253906 343.535156 20.117188 C 343.46875 19.96875 343.410156 19.824219 343.335938 19.679688 C 343.285156 19.550781 343.222656 19.429688 343.164062 19.304688 C 343.105469 19.171875 343.046875 19.035156 342.980469 18.902344 C 342.933594 18.785156 342.875 18.671875 342.820312 18.554688 C 342.867188 18.65625 342.902344 18.761719 342.941406 18.867188 C 339.257812 12.203125 324.671875 10.390625 309.636719 15.75 C 294.003906 21.324219 294.609375 31.050781 293.476562 36.101562 C 292.636719 39.832031 288.101562 41.582031 288.101562 41.582031 C 288.101562 41.582031 284.375 43.050781 276.347656 45.992188 C 268.660156 48.808594 228.304688 63.257812 221.253906 66.472656 C 214.628906 69.496094 208.105469 71.554688 210.472656 77.980469 C 210.433594 77.910156 210.394531 77.847656 210.359375 77.777344 L 210.300781 77.652344 C 210.402344 77.894531 210.515625 78.144531 210.640625 78.398438 C 210.757812 78.679688 210.886719 78.96875 211.039062 79.269531 L 211.054688 79.296875 C 211.121094 79.457031 211.1875 79.613281 211.265625 79.777344 C 211.214844 79.65625 211.171875 79.539062 211.125 79.421875 C 214.976562 86.613281 226.109375 79.746094 226.109375 79.746094 C 226.109375 79.746094 271.550781 56.132812 279.046875 52.03125 C 287.15625 47.589844 290.171875 46.121094 290.171875 46.121094 C 290.171875 46.121094 294.683594 43.6875 297.929688 45.859375 " fill-opacity="1" fill-rule="nonzero"/></g></g></g><g clip-path="url(#7ba262f286)"><path stroke-linecap="butt" transform="matrix(0.612863, 0, 0, 0.612863, 247.337129, 3.3117)" fill="none" stroke-linejoin="miter" d="M 36.23297 145.374378 C 30.515694 145.374378 25.46129 143.991268 21.076132 141.218676 C 16.690975 138.446084 13.249136 134.252139 10.763363 128.643217 C 8.271217 123.034294 7.028331 116.125122 7.028331 107.915699 C 7.028331 99.668033 8.30946 92.739739 10.85897 87.130817 C 13.414854 81.515521 16.952299 77.32795 21.471306 74.555358 C 25.990313 71.782765 31.216809 70.399656 37.150794 70.399656 C 41.65068 70.399656 45.545056 71.170883 48.840298 72.71971 C 52.13554 74.268538 54.92088 76.684199 57.189944 79.960319 L 58.56668 79.628883 L 58.56668 42.762966 L 76.706445 42.762966 L 76.706445 143.997642 L 58.56668 143.997642 L 58.56668 134.634566 L 57.189944 134.373241 C 55.182205 137.776837 52.428734 140.46657 48.942279 142.429693 C 45.44945 144.392816 41.210889 145.374378 36.23297 145.374378 Z M 42.128713 129.988084 C 47.234107 129.988084 51.275081 128.165184 54.24526 124.519384 C 57.209066 120.873585 58.694155 115.341147 58.694155 107.915699 C 58.694155 100.496624 57.209066 94.951439 54.24526 91.286519 C 51.275081 87.621598 47.234107 85.78595 42.128713 85.78595 C 36.800236 85.78595 32.733768 87.564234 29.916559 91.1208 C 27.09935 94.677367 25.690746 100.279916 25.690746 107.915699 C 25.690746 115.513239 27.09935 121.090293 29.916559 124.64686 C 32.733768 128.2098 36.800236 129.988084 42.128713 129.988084 Z M 42.128713 129.988084 " stroke="#000000" stroke-width="9.722975" stroke-opacity="1" stroke-miterlimit="4"/></g><g fill="#000000" fill-opacity="1"><g transform="translate(247.672288, 91.563945)"><g><path d="M 21.875 0.84375 C 18.363281 0.84375 15.265625 -0.00390625 12.578125 -1.703125 C 9.890625 -3.398438 7.78125 -5.96875 6.25 -9.40625 C 4.726562 -12.84375 3.96875 -17.078125 3.96875 -22.109375 C 3.96875 -27.171875 4.75 -31.421875 6.3125 -34.859375 C 7.882812 -38.296875 10.050781 -40.863281 12.8125 -42.5625 C 15.582031 -44.257812 18.789062 -45.109375 22.4375 -45.109375 C 25.1875 -45.109375 27.570312 -44.628906 29.59375 -43.671875 C 31.613281 -42.722656 33.320312 -41.25 34.71875 -39.25 L 35.5625 -39.453125 L 35.5625 -62.046875 L 46.671875 -62.046875 L 46.671875 0 L 35.5625 0 L 35.5625 -5.734375 L 34.71875 -5.90625 C 33.476562 -3.8125 31.789062 -2.160156 29.65625 -0.953125 C 27.519531 0.242188 24.925781 0.84375 21.875 0.84375 Z M 25.484375 -8.59375 C 28.609375 -8.59375 31.082031 -9.707031 32.90625 -11.9375 C 34.726562 -14.175781 35.640625 -17.566406 35.640625 -22.109375 C 35.640625 -26.660156 34.726562 -30.054688 32.90625 -32.296875 C 31.082031 -34.546875 28.609375 -35.671875 25.484375 -35.671875 C 22.222656 -35.671875 19.726562 -34.582031 18 -32.40625 C 16.269531 -30.226562 15.40625 -26.796875 15.40625 -22.109375 C 15.40625 -17.453125 16.269531 -14.035156 18 -11.859375 C 19.726562 -9.679688 22.222656 -8.59375 25.484375 -8.59375 Z M 25.484375 -8.59375 "/></g></g></g><g clip-path="url(#3ef5b057a2)"><path fill="#417ebe" d="M 257.375 40.550781 C 257.320312 41.324219 257.152344 42.082031 256.910156 42.832031 L 256.839844 43.039062 L 255.789062 42.046875 C 255.203125 41.5 254.925781 41.039062 254.8125 40.527344 C 254.691406 40.023438 254.734375 39.480469 254.796875 38.753906 L 254.839844 38.238281 C 254.878906 37.671875 254.558594 37.011719 254.082031 36.375 C 253.371094 35.421875 252.324219 34.523438 251.671875 34.042969 L 248.011719 31.039062 L 247.667969 30.757812 L 248.109375 30.792969 C 248.679688 30.835938 249.238281 30.925781 249.789062 31.066406 C 250.34375 31.203125 250.878906 31.390625 251.390625 31.613281 C 251.960938 31.863281 252.496094 32.164062 253.007812 32.511719 C 253.519531 32.859375 253.992188 33.257812 254.425781 33.691406 C 255.082031 34.339844 255.671875 35.054688 256.15625 35.835938 C 256.640625 36.617188 257.015625 37.464844 257.214844 38.382812 C 257.375 39.113281 257.421875 39.839844 257.375 40.550781 Z M 246.148438 30.832031 C 246.285156 30.816406 246.429688 30.796875 246.570312 30.785156 L 246.636719 30.785156 L 247.851562 31.992188 C 248.355469 32.496094 248.859375 33 249.507812 33.636719 L 250.074219 34.199219 L 250.777344 34.890625 C 250.9375 35.046875 251.09375 35.203125 251.257812 35.351562 C 251.28125 35.371094 251.3125 35.398438 251.332031 35.417969 C 251.425781 35.503906 251.527344 35.605469 251.621094 35.722656 C 251.71875 35.839844 251.804688 35.964844 251.855469 36.09375 C 251.894531 36.195312 251.910156 36.289062 251.898438 36.382812 C 251.890625 36.484375 251.851562 36.574219 251.773438 36.664062 L 251.765625 36.667969 C 251.65625 36.789062 251.496094 36.816406 251.335938 36.792969 C 251.136719 36.757812 250.914062 36.660156 250.792969 36.578125 L 250.78125 36.574219 C 250.21875 36.144531 249.675781 35.683594 249.148438 35.207031 C 248.621094 34.734375 248.101562 34.234375 247.585938 33.757812 C 247.3125 33.5 247.027344 33.222656 246.746094 32.949219 C 246.160156 32.386719 245.574219 31.824219 244.96875 31.269531 L 244.777344 31.089844 L 245.03125 31.03125 C 245.144531 31.003906 245.265625 30.976562 245.378906 30.957031 C 245.492188 30.9375 245.609375 30.910156 245.734375 30.890625 C 245.867188 30.871094 246.007812 30.851562 246.148438 30.832031 Z M 244.027344 31.324219 C 244.136719 31.285156 244.246094 31.253906 244.351562 31.21875 L 244.433594 31.195312 L 244.492188 31.261719 C 245.230469 32.027344 245.957031 32.800781 246.695312 33.574219 C 247.324219 34.234375 247.945312 34.898438 248.578125 35.5625 C 248.945312 35.949219 249.316406 36.335938 249.6875 36.722656 L 249.820312 36.875 C 249.957031 37.011719 250.09375 37.15625 250.238281 37.300781 L 250.25 37.3125 C 250.335938 37.398438 250.417969 37.527344 250.457031 37.65625 C 250.507812 37.808594 250.492188 37.964844 250.355469 38.097656 C 250.355469 38.097656 250.347656 38.109375 250.34375 38.109375 C 250.214844 38.238281 250.054688 38.257812 249.902344 38.214844 C 249.769531 38.175781 249.652344 38.09375 249.554688 38.003906 C 249.554688 38 249.550781 37.996094 249.550781 37.996094 C 249.3125 37.753906 249.089844 37.542969 248.863281 37.335938 L 248.613281 37.097656 C 247.777344 36.300781 246.933594 35.507812 246.101562 34.703125 C 245.113281 33.773438 244.132812 32.839844 243.136719 31.898438 L 242.984375 31.757812 L 243.171875 31.671875 C 243.253906 31.632812 243.34375 31.597656 243.441406 31.558594 C 243.535156 31.519531 243.625 31.484375 243.714844 31.445312 C 243.824219 31.398438 243.929688 31.359375 244.027344 31.324219 Z M 242.359375 32.09375 C 242.460938 32.03125 242.566406 31.972656 242.664062 31.921875 L 242.761719 31.871094 L 248.820312 38.523438 L 248.832031 38.542969 C 248.910156 38.664062 249.011719 38.882812 249.042969 39.082031 C 249.0625 39.246094 249.039062 39.40625 248.921875 39.511719 L 248.914062 39.515625 C 248.828125 39.589844 248.734375 39.636719 248.632812 39.644531 C 248.539062 39.648438 248.445312 39.636719 248.351562 39.601562 C 248.21875 39.546875 248.089844 39.464844 247.964844 39.367188 C 247.851562 39.265625 247.746094 39.167969 247.664062 39.070312 C 247.640625 39.050781 247.617188 39.023438 247.597656 39 C 247.375 38.753906 247.128906 38.5 246.882812 38.257812 L 246.65625 38.023438 C 246.355469 37.71875 246.0625 37.421875 245.773438 37.132812 L 244.851562 36.199219 C 243.734375 35.078125 242.617188 33.957031 241.5 32.835938 L 241.386719 32.71875 L 241.515625 32.621094 C 241.601562 32.554688 241.695312 32.496094 241.785156 32.4375 C 241.878906 32.375 241.96875 32.316406 242.0625 32.257812 C 242.152344 32.210938 242.253906 32.152344 242.359375 32.09375 Z M 242.359375 32.09375 " fill-opacity="1" fill-rule="nonzero"/></g><g clip-path="url(#3a73894639)"><path fill="#000000" d="M 239.632812 40.75 C 239.8125 41.082031 239.964844 41.417969 240.066406 41.777344 L 240.070312 41.828125 C 240.03125 42.246094 240.066406 42.679688 240.144531 43.105469 C 240.246094 43.589844 240.398438 44.058594 240.597656 44.496094 C 240.816406 44.972656 241.082031 45.4375 241.390625 45.875 C 241.714844 46.335938 242.078125 46.765625 242.46875 47.15625 C 243.015625 47.707031 243.660156 48.214844 244.351562 48.625 C 244.980469 48.992188 245.648438 49.28125 246.339844 49.441406 C 246.9375 49.582031 247.582031 49.625 248.171875 49.5 C 248.675781 49.402344 249.136719 49.1875 249.515625 48.800781 C 249.890625 48.429688 250.109375 47.960938 250.214844 47.460938 C 250.335938 46.867188 250.289062 46.230469 250.148438 45.632812 C 249.992188 44.9375 249.703125 44.269531 249.332031 43.636719 C 248.929688 42.945312 248.414062 42.308594 247.867188 41.757812 C 247.472656 41.363281 247.042969 41 246.585938 40.683594 C 246.152344 40.378906 245.6875 40.109375 245.203125 39.890625 C 244.769531 39.695312 244.296875 39.535156 243.820312 39.4375 C 243.394531 39.355469 242.957031 39.316406 242.539062 39.355469 L 242.488281 39.351562 C 242.125 39.246094 241.769531 39.089844 241.429688 38.902344 C 241.09375 38.71875 240.777344 38.5 240.480469 38.273438 C 240.09375 37.984375 239.730469 37.664062 239.382812 37.320312 C 239.03125 36.984375 238.703125 36.628906 238.394531 36.265625 L 238.328125 36.191406 L 238.378906 36.109375 C 238.496094 35.910156 238.621094 35.707031 238.75 35.515625 C 238.878906 35.324219 239.023438 35.128906 239.164062 34.9375 C 239.332031 34.71875 239.507812 34.515625 239.691406 34.304688 C 239.871094 34.097656 240.058594 33.898438 240.253906 33.707031 C 240.308594 33.652344 240.367188 33.597656 240.433594 33.53125 C 240.488281 33.484375 240.546875 33.429688 240.613281 33.367188 C 240.667969 33.320312 240.71875 33.273438 240.761719 33.234375 C 240.808594 33.195312 240.863281 33.152344 240.917969 33.109375 L 241.027344 33.015625 L 241.113281 33.125 C 241.449219 33.539062 241.972656 34.171875 242.492188 34.800781 C 243.753906 36.320312 245.011719 37.84375 246.28125 39.429688 C 246.765625 40.082031 247.664062 41.125 248.621094 41.839844 C 249.253906 42.3125 249.910156 42.640625 250.484375 42.601562 L 250.992188 42.554688 C 251.730469 42.496094 252.269531 42.453125 252.777344 42.566406 C 253.285156 42.6875 253.746094 42.964844 254.292969 43.546875 L 254.960938 44.257812 L 255.847656 45.199219 L 255.796875 45.28125 C 255.609375 45.628906 255.398438 45.960938 255.191406 46.289062 C 254.976562 46.621094 254.757812 46.941406 254.527344 47.265625 C 254.28125 47.609375 254.035156 47.949219 253.773438 48.273438 C 253.515625 48.609375 253.25 48.933594 252.992188 49.257812 C 252.527344 49.816406 252.050781 50.367188 251.550781 50.925781 C 251.070312 51.46875 250.574219 52.019531 250.085938 52.5625 L 249.894531 52.769531 C 249.066406 53.6875 248.242188 54.601562 247.453125 55.5625 L 247.34375 55.691406 L 247.238281 55.5625 C 246.457031 54.605469 245.617188 53.683594 244.789062 52.765625 L 244.605469 52.554688 C 244.113281 52.019531 243.621094 51.46875 243.136719 50.925781 C 242.648438 50.367188 242.164062 49.816406 241.699219 49.257812 C 241.035156 48.445312 240.367188 47.597656 239.765625 46.699219 C 239.167969 45.804688 238.621094 44.875 238.195312 43.902344 C 237.804688 43.03125 237.527344 42.132812 237.386719 41.214844 C 237.25 40.296875 237.269531 39.359375 237.472656 38.414062 L 237.523438 38.175781 L 237.703125 38.34375 C 237.941406 38.574219 238.171875 38.8125 238.394531 39.0625 C 238.621094 39.304688 238.828125 39.566406 239.027344 39.828125 C 239.253906 40.113281 239.457031 40.425781 239.632812 40.75 Z M 239.632812 40.75 " fill-opacity="1" fill-rule="nonzero"/></g><g clip-path="url(#108209add1)"><path fill="#000000" d="M 216.960938 77.214844 L 206.007812 77.214844 C 205.492188 61.871094 193.851562 49.296875 178.917969 47.320312 C 179.925781 45.691406 180.605469 43.425781 180.796875 40.769531 C 180.898438 39.390625 180.230469 38.074219 179.0625 37.335938 C 176.472656 35.699219 173.125 35.699219 170.539062 37.335938 C 169.367188 38.074219 168.699219 39.390625 168.800781 40.769531 C 168.992188 43.425781 169.675781 45.691406 170.683594 47.320312 C 155.746094 49.296875 144.105469 61.871094 143.589844 77.214844 L 132.640625 77.214844 C 131.804688 77.214844 131.132812 77.890625 131.132812 78.722656 C 131.132812 79.554688 131.804688 80.230469 132.640625 80.230469 L 135.4375 80.230469 L 137.148438 83.734375 C 137.691406 84.847656 138.847656 85.566406 140.085938 85.566406 L 209.511719 85.566406 C 210.753906 85.566406 211.90625 84.847656 212.449219 83.734375 L 214.160156 80.230469 L 216.960938 80.230469 C 217.792969 80.230469 218.46875 79.554688 218.46875 78.722656 C 218.46875 77.890625 217.792969 77.214844 216.960938 77.214844 Z M 171.808594 40.550781 C 171.789062 40.285156 171.917969 40.027344 172.148438 39.882812 C 172.953125 39.375 173.875 39.121094 174.800781 39.121094 C 175.722656 39.121094 176.644531 39.375 177.449219 39.882812 C 177.679688 40.027344 177.808594 40.285156 177.792969 40.550781 C 177.488281 44.734375 175.828125 47.050781 174.800781 47.050781 C 173.769531 47.050781 172.109375 44.734375 171.808594 40.550781 Z M 174.800781 50.066406 C 190 50.066406 202.429688 62.148438 202.992188 77.214844 L 146.609375 77.214844 C 147.167969 62.148438 159.597656 50.066406 174.800781 50.066406 Z M 209.742188 82.410156 C 209.699219 82.496094 209.609375 82.550781 209.511719 82.550781 L 140.085938 82.550781 C 139.988281 82.550781 139.898438 82.496094 139.855469 82.410156 L 138.792969 80.230469 L 210.804688 80.230469 Z M 209.742188 82.410156 " fill-opacity="1" fill-rule="nonzero"/></g><g clip-path="url(#bbacfd97d2)"><path fill="#000000" d="M 175.265625 30.527344 C 175.503906 30.667969 175.765625 30.734375 176.023438 30.734375 C 176.542969 30.734375 177.046875 30.46875 177.328125 29.988281 C 177.746094 29.269531 177.503906 28.347656 176.789062 27.925781 C 175.058594 26.914062 174.082031 25.867188 173.890625 24.820312 C 173.550781 22.980469 175.488281 20.570312 177.363281 18.238281 C 180.511719 14.324219 184.820312 8.960938 178.652344 3.867188 C 178.007812 3.339844 177.058594 3.429688 176.53125 4.070312 C 176 4.714844 176.089844 5.664062 176.734375 6.195312 C 180.242188 9.089844 178.902344 11.511719 175.011719 16.351562 C 172.714844 19.210938 170.335938 22.167969 170.925781 25.367188 C 171.289062 27.34375 172.707031 29.03125 175.265625 30.527344 Z M 175.265625 30.527344 " fill-opacity="1" fill-rule="nonzero"/></g><path fill="#000000" d="M 162.90625 35.675781 C 163.144531 35.816406 163.40625 35.882812 163.664062 35.882812 C 164.183594 35.882812 164.6875 35.613281 164.96875 35.136719 C 165.386719 34.417969 165.148438 33.492188 164.429688 33.074219 C 162.976562 32.222656 162.160156 31.359375 162 30.503906 C 161.722656 28.992188 163.378906 26.933594 164.980469 24.9375 C 166.457031 23.101562 167.984375 21.203125 168.59375 19.136719 C 169.363281 16.523438 168.515625 14.175781 166.078125 12.164062 C 165.433594 11.632812 164.484375 11.726562 163.953125 12.367188 C 163.425781 13.007812 163.515625 13.960938 164.15625 14.488281 C 167.085938 16.90625 166.003906 18.855469 162.632812 23.050781 C 160.605469 25.574219 158.507812 28.179688 159.035156 31.050781 C 159.363281 32.832031 160.628906 34.34375 162.90625 35.675781 Z M 162.90625 35.675781 " fill-opacity="1" fill-rule="nonzero"/><path fill="#000000" d="M 180.8125 31.050781 C 181.140625 32.832031 182.40625 34.34375 184.683594 35.675781 C 184.921875 35.816406 185.183594 35.882812 185.441406 35.882812 C 185.960938 35.882812 186.464844 35.613281 186.746094 35.136719 C 187.164062 34.417969 186.921875 33.492188 186.203125 33.074219 C 184.75 32.222656 183.933594 31.359375 183.777344 30.503906 C 183.5 28.992188 185.15625 26.933594 186.757812 24.9375 C 188.234375 23.101562 189.761719 21.203125 190.371094 19.136719 C 191.140625 16.523438 190.292969 14.175781 187.851562 12.164062 C 187.210938 11.632812 186.261719 11.726562 185.730469 12.367188 C 185.199219 13.007812 185.292969 13.960938 185.933594 14.488281 C 188.863281 16.90625 187.78125 18.855469 184.410156 23.050781 C 182.382812 25.574219 180.285156 28.179688 180.8125 31.050781 Z M 180.8125 31.050781 " fill-opacity="1" fill-rule="nonzero"/><g clip-path="url(#62258120c7)"><path fill="#417ebe" d="M 124.351562 98.300781 C 124.351562 98.300781 107.199219 97.472656 122.203125 102.261719 C 126.015625 103.484375 150.960938 108.097656 150.960938 108.097656 C 150.960938 108.097656 151.066406 110.597656 152.207031 110.597656 L 204.089844 110.597656 C 205.234375 110.597656 205.335938 108.097656 205.335938 108.097656 C 205.335938 108.097656 230.210938 103.238281 234.09375 102.261719 C 248.523438 98.613281 231.945312 98.300781 231.945312 98.300781 L 124.351562 98.300781 " fill-opacity="1" fill-rule="nonzero"/></g></svg>