<svg xmlns="http://www.w3.org/2000/svg" xmlns:xlink="http://www.w3.org/1999/xlink" width="343" zoomAndPan="magnify" viewBox="0 0 257.25 30.000001" height="40" preserveAspectRatio="xMidYMid meet" version="1.0"><defs><g/><clipPath id="0d862c9243"><path d="M 86 0 L 146 0 L 146 29.03125 L 86 29.03125 Z M 86 0 " clip-rule="nonzero"/></clipPath><clipPath id="03f3f0bc59"><path d="M 140.535156 14.179688 L 145.449219 14.179688 L 145.449219 19.089844 L 140.535156 19.089844 Z M 140.535156 14.179688 " clip-rule="nonzero"/></clipPath><clipPath id="232820de0a"><path d="M 142.992188 14.179688 C 141.636719 14.179688 140.535156 15.277344 140.535156 16.636719 C 140.535156 17.992188 141.636719 19.089844 142.992188 19.089844 C 144.347656 19.089844 145.449219 17.992188 145.449219 16.636719 C 145.449219 15.277344 144.347656 14.179688 142.992188 14.179688 Z M 142.992188 14.179688 " clip-rule="nonzero"/></clipPath><clipPath id="9e32ffdfca"><path d="M 136.152344 11.003906 L 150 11.003906 L 150 24.863281 L 136.152344 24.863281 Z M 136.152344 11.003906 " clip-rule="nonzero"/></clipPath><clipPath id="ad1cdc513c"><path d="M 141 6 L 164 6 L 164 22 L 141 22 Z M 141 6 " clip-rule="nonzero"/></clipPath><clipPath id="168abfd5fc"><path d="M 159.921875 6.613281 L 163.097656 13.582031 L 142.617188 22.921875 L 139.4375 15.953125 Z M 159.921875 6.613281 " clip-rule="nonzero"/></clipPath><clipPath id="af057214e1"><path d="M 173.140625 0.582031 L 177.164062 9.398438 L 143.457031 24.773438 L 139.433594 15.957031 Z M 173.140625 0.582031 " clip-rule="nonzero"/></clipPath><clipPath id="65adc9f4e2"><path d="M 143 0 L 172 0 L 172 29.03125 L 143 29.03125 Z M 143 0 " clip-rule="nonzero"/></clipPath><clipPath id="4d4eb0b6eb"><path d="M 149 7.824219 L 153.25 7.824219 L 153.25 11 L 149 11 Z M 149 7.824219 " clip-rule="nonzero"/></clipPath><clipPath id="f70fbeb403"><path d="M 148.089844 8 L 153 8 L 153 14.230469 L 148.089844 14.230469 Z M 148.089844 8 " clip-rule="nonzero"/></clipPath><clipPath id="07e3641c90"><path d="M 121.023438 9 L 140.25 9 L 140.25 9.269531 L 121.023438 9.269531 Z M 121.023438 9 " clip-rule="nonzero"/></clipPath><clipPath id="d927f0ec9c"><path d="M 131 0.828125 L 134 0.828125 L 134 8 L 131 8 Z M 131 0.828125 " clip-rule="nonzero"/></clipPath><clipPath id="3a45bb9d35"><path d="M 128 2 L 131 2 L 131 9.269531 L 128 9.269531 Z M 128 2 " clip-rule="nonzero"/></clipPath><clipPath id="7894d7eead"><path d="M 133 2 L 137 2 L 137 9.269531 L 133 9.269531 Z M 133 2 " clip-rule="nonzero"/></clipPath><clipPath id="35cde44786"><path d="M 117 25 L 149 25 L 149 28.261719 L 117 28.261719 Z M 117 25 " clip-rule="nonzero"/></clipPath></defs><g clip-path="url(#0d862c9243)"><path stroke-linecap="butt" transform="matrix(0.180478, 0, 0, 0.180478, 88.018981, 0.821998)" fill="none" stroke-linejoin="miter" d="M 73.419019 42.087966 C 79.371081 42.087966 84.435744 43.170159 88.656296 45.356189 C 92.876849 47.520575 96.058496 50.572359 98.222882 54.468254 C 100.365624 58.385792 101.447817 62.931003 101.447817 68.125529 C 101.447817 73.298411 100.365624 77.843622 98.222882 81.717872 C 96.058496 85.613767 92.876849 88.665551 88.656296 90.829937 C 84.435744 92.994323 79.371081 94.09816 73.419019 94.09816 L 57.770509 94.09816 L 57.770509 125.005591 L 41.386108 125.005591 L 41.386108 42.087966 Z M 71.276277 81.111844 C 80.388342 81.111844 84.933552 76.783073 84.933552 68.125529 C 84.933552 59.424698 80.388342 55.074282 71.276277 55.074282 L 57.770509 55.074282 L 57.770509 81.111844 Z M 137.225116 126.196003 C 131.597713 126.196003 127.290585 124.659289 124.325376 121.629149 C 121.360167 118.577365 119.866741 113.967223 119.866741 107.755435 L 119.866741 37.326317 L 135.580183 37.326317 L 135.580183 107.127763 C 135.580183 110.958726 137.160184 112.863386 140.341832 112.863386 C 141.250874 112.863386 142.224848 112.711879 143.242109 112.408865 L 144.042932 112.646947 L 145.449783 124.724221 C 144.584028 125.178742 143.436904 125.525043 141.986765 125.78477 C 140.55827 126.06614 138.956625 126.196003 137.225116 126.196003 Z M 176.465433 126.196003 C 172.461319 126.196003 168.976657 125.460112 166.033093 123.988329 C 163.089528 122.494903 160.816923 120.330517 159.236921 117.495172 C 157.635275 114.638182 156.856096 111.196809 156.856096 107.192695 C 156.856096 103.491595 157.635275 100.374879 159.236921 97.864191 C 160.816923 95.353504 163.284322 93.297337 166.595833 91.674048 C 169.928987 90.072402 174.279403 88.838702 179.64708 87.972948 C 183.391468 87.36692 186.226813 86.69596 188.17476 85.981713 C 190.122708 85.267465 191.442983 84.444999 192.113943 83.535957 C 192.806546 82.626915 193.152848 81.47979 193.152848 80.072939 C 193.152848 78.081704 192.438601 76.54499 191.053394 75.484441 C 189.646543 74.423892 187.33065 73.904439 184.062427 73.904439 C 180.59941 73.904439 177.287899 74.683618 174.14954 76.220332 C 171.01118 77.77869 168.284054 79.813213 165.968161 82.345544 L 164.84268 82.345544 L 158.262947 72.432657 C 161.444594 68.904708 165.318845 66.177582 169.885699 64.20799 C 174.474198 62.238399 179.452285 61.264426 184.86325 61.264426 C 193.152848 61.264426 199.148197 63.017578 202.849297 66.523883 C 206.550397 70.051832 208.390125 75.02992 208.390125 81.501434 L 208.390125 108.664477 C 208.390125 111.456535 209.623825 112.863386 212.091225 112.863386 C 213.021911 112.863386 213.952597 112.690235 214.861639 112.343933 L 215.662462 112.582016 L 216.787942 123.533808 C 215.922188 124.096549 214.710132 124.55107 213.173418 124.919015 C 211.61506 125.265317 209.905195 125.460112 208.065467 125.460112 C 204.321079 125.460112 201.399158 124.745864 199.299704 123.295726 C 197.20025 121.867231 195.706823 119.61627 194.797781 116.542842 L 193.607369 116.434622 C 190.533941 122.949424 184.819962 126.196003 176.465433 126.196003 Z M 181.465164 114.443387 C 185.101332 114.443387 188.00161 113.231331 190.165996 110.785575 C 192.352025 108.361463 193.434218 104.963377 193.434218 100.612961 L 193.434218 94.271311 L 192.352025 94.033228 C 191.399695 94.790763 190.165996 95.418435 188.629282 95.937888 C 187.114211 96.435697 184.906538 96.955149 182.027904 97.431314 C 178.629819 97.994055 176.184063 98.968028 174.690636 100.353235 C 173.19721 101.738442 172.439675 103.686389 172.439675 106.218721 C 172.439675 108.90256 173.240498 110.958726 174.820499 112.343933 C 176.422145 113.750784 178.629819 114.443387 181.465164 114.443387 Z M 266.071009 110.092972 L 270.161699 121.715724 C 268.451834 123.100931 266.330736 124.204768 263.755117 125.005591 C 261.179497 125.78477 258.257576 126.196003 255.010997 126.196003 C 248.258113 126.196003 243.106875 124.356275 239.578926 120.655175 C 236.072621 116.975719 234.319468 111.608042 234.319468 104.573788 L 234.319468 74.856769 L 224.79617 74.856769 L 224.79617 62.389906 L 234.319468 62.389906 L 234.319468 50.204414 L 250.03291 47.650438 L 250.03291 62.389906 L 267.780874 62.389906 L 267.780874 74.856769 L 250.03291 74.856769 L 250.03291 103.448307 C 250.03291 106.543379 250.660582 108.815984 251.959213 110.222835 C 253.236201 111.65133 255.119217 112.343933 257.564973 112.343933 C 260.357031 112.343933 262.802787 111.586398 264.880597 110.092972 Z M 266.071009 110.092972 " stroke="#000000" stroke-width="8.421528" stroke-opacity="1" stroke-miterlimit="4"/></g><g fill="#000000" fill-opacity="1"><g transform="translate(93.543313, 23.381803)"><g><path d="M 7.734375 -14.96875 C 8.804688 -14.96875 9.722656 -14.769531 10.484375 -14.375 C 11.242188 -13.988281 11.816406 -13.441406 12.203125 -12.734375 C 12.585938 -12.023438 12.78125 -11.203125 12.78125 -10.265625 C 12.78125 -9.328125 12.585938 -8.503906 12.203125 -7.796875 C 11.816406 -7.097656 11.242188 -6.550781 10.484375 -6.15625 C 9.722656 -5.769531 8.804688 -5.578125 7.734375 -5.578125 L 4.90625 -5.578125 L 4.90625 0 L 1.953125 0 L 1.953125 -14.96875 Z M 7.34375 -7.921875 C 8.988281 -7.921875 9.8125 -8.703125 9.8125 -10.265625 C 9.8125 -11.835938 8.988281 -12.625 7.34375 -12.625 L 4.90625 -12.625 L 4.90625 -7.921875 Z M 7.34375 -7.921875 "/></g></g></g><g fill="#000000" fill-opacity="1"><g transform="translate(108.097508, 23.381803)"><g><path d="M 4.6875 0.21875 C 3.664062 0.21875 2.890625 -0.0546875 2.359375 -0.609375 C 1.828125 -1.160156 1.5625 -1.992188 1.5625 -3.109375 L 1.5625 -15.828125 L 4.390625 -15.828125 L 4.390625 -3.21875 C 4.390625 -2.53125 4.675781 -2.1875 5.25 -2.1875 C 5.414062 -2.1875 5.59375 -2.210938 5.78125 -2.265625 L 5.921875 -2.234375 L 6.171875 -0.046875 C 6.015625 0.0351562 5.804688 0.0976562 5.546875 0.140625 C 5.285156 0.191406 5 0.21875 4.6875 0.21875 Z M 4.6875 0.21875 "/></g></g></g><g fill="#000000" fill-opacity="1"><g transform="translate(115.46687, 23.381803)"><g><path d="M 4.40625 0.21875 C 3.675781 0.21875 3.046875 0.0859375 2.515625 -0.171875 C 1.984375 -0.441406 1.570312 -0.832031 1.28125 -1.34375 C 1 -1.863281 0.859375 -2.488281 0.859375 -3.21875 C 0.859375 -3.882812 1 -4.441406 1.28125 -4.890625 C 1.570312 -5.347656 2.015625 -5.722656 2.609375 -6.015625 C 3.210938 -6.304688 4 -6.53125 4.96875 -6.6875 C 5.644531 -6.789062 6.160156 -6.90625 6.515625 -7.03125 C 6.867188 -7.164062 7.101562 -7.316406 7.21875 -7.484375 C 7.34375 -7.648438 7.40625 -7.859375 7.40625 -8.109375 C 7.40625 -8.472656 7.28125 -8.75 7.03125 -8.9375 C 6.78125 -9.125 6.363281 -9.21875 5.78125 -9.21875 C 5.144531 -9.21875 4.546875 -9.078125 3.984375 -8.796875 C 3.421875 -8.523438 2.929688 -8.160156 2.515625 -7.703125 L 2.296875 -7.703125 L 1.109375 -9.484375 C 1.679688 -10.117188 2.378906 -10.613281 3.203125 -10.96875 C 4.035156 -11.332031 4.941406 -11.515625 5.921875 -11.515625 C 7.410156 -11.515625 8.488281 -11.195312 9.15625 -10.5625 C 9.832031 -9.925781 10.171875 -9.023438 10.171875 -7.859375 L 10.171875 -2.953125 C 10.171875 -2.441406 10.390625 -2.1875 10.828125 -2.1875 C 11.003906 -2.1875 11.171875 -2.21875 11.328125 -2.28125 L 11.484375 -2.25 L 11.6875 -0.265625 C 11.53125 -0.160156 11.3125 -0.078125 11.03125 -0.015625 C 10.75 0.046875 10.441406 0.078125 10.109375 0.078125 C 9.429688 0.078125 8.898438 -0.0507812 8.515625 -0.3125 C 8.140625 -0.570312 7.867188 -0.976562 7.703125 -1.53125 L 7.5 -1.546875 C 6.945312 -0.367188 5.914062 0.21875 4.40625 0.21875 Z M 5.296875 -1.90625 C 5.953125 -1.90625 6.476562 -2.125 6.875 -2.5625 C 7.269531 -3 7.46875 -3.613281 7.46875 -4.40625 L 7.46875 -5.546875 L 7.265625 -5.59375 C 7.097656 -5.457031 6.875 -5.34375 6.59375 -5.25 C 6.320312 -5.15625 5.925781 -5.0625 5.40625 -4.96875 C 4.789062 -4.875 4.347656 -4.703125 4.078125 -4.453125 C 3.804688 -4.203125 3.671875 -3.847656 3.671875 -3.390625 C 3.671875 -2.898438 3.8125 -2.53125 4.09375 -2.28125 C 4.382812 -2.03125 4.785156 -1.90625 5.296875 -1.90625 Z M 5.296875 -1.90625 "/></g></g></g><g fill="#000000" fill-opacity="1"><g transform="translate(128.250445, 23.381803)"><g><path d="M 7.796875 -2.6875 L 8.53125 -0.59375 C 8.21875 -0.34375 7.828125 -0.144531 7.359375 0 C 6.898438 0.144531 6.378906 0.21875 5.796875 0.21875 C 4.578125 0.21875 3.648438 -0.113281 3.015625 -0.78125 C 2.378906 -1.445312 2.0625 -2.414062 2.0625 -3.6875 L 2.0625 -9.046875 L 0.34375 -9.046875 L 0.34375 -11.296875 L 2.0625 -11.296875 L 2.0625 -13.5 L 4.890625 -13.96875 L 4.890625 -11.296875 L 8.09375 -11.296875 L 8.09375 -9.046875 L 4.890625 -9.046875 L 4.890625 -3.890625 C 4.890625 -3.328125 5.003906 -2.914062 5.234375 -2.65625 C 5.472656 -2.40625 5.8125 -2.28125 6.25 -2.28125 C 6.757812 -2.28125 7.203125 -2.414062 7.578125 -2.6875 Z M 7.796875 -2.6875 "/></g></g></g><g clip-path="url(#03f3f0bc59)"><g clip-path="url(#232820de0a)"><path fill="#000000" d="M 140.535156 14.179688 L 145.449219 14.179688 L 145.449219 19.089844 L 140.535156 19.089844 Z M 140.535156 14.179688 " fill-opacity="1" fill-rule="nonzero"/></g></g><g clip-path="url(#9e32ffdfca)"><path fill="#000000" d="M 137.746094 20.179688 C 138.820312 19.789062 140.011719 20.347656 140.402344 21.421875 C 140.539062 21.800781 140.558594 22.1875 140.484375 22.554688 C 140.804688 22.628906 141.082031 22.859375 141.203125 23.195312 C 141.335938 23.5625 141.246094 23.957031 140.996094 24.226562 C 142.414062 24.792969 144.039062 24.863281 145.589844 24.300781 C 148.929688 23.082031 150.65625 19.378906 149.441406 16.027344 C 148.226562 12.679688 144.53125 10.949219 141.1875 12.167969 C 137.859375 13.378906 136.136719 17.058594 137.320312 20.394531 C 137.453125 20.308594 137.59375 20.238281 137.746094 20.179688 Z M 142.679688 16.28125 C 143.757812 15.890625 144.945312 16.445312 145.335938 17.523438 C 145.726562 18.601562 145.171875 19.792969 144.097656 20.183594 C 143.019531 20.578125 141.832031 20.019531 141.441406 18.941406 C 141.050781 17.863281 141.605469 16.671875 142.679688 16.28125 Z M 142.679688 16.28125 " fill-opacity="1" fill-rule="nonzero"/></g><g clip-path="url(#ad1cdc513c)"><g clip-path="url(#168abfd5fc)"><g clip-path="url(#af057214e1)"><path fill="#ffffff" d="M 163.570312 11.675781 C 164.714844 12.445312 166.59375 14.242188 170.273438 12.140625 C 173.820312 10.113281 175.972656 7.121094 175.242188 5.203125 C 175.253906 5.226562 175.265625 5.246094 175.277344 5.273438 C 175.269531 5.25 175.261719 5.234375 175.25 5.214844 C 175.238281 5.175781 175.21875 5.144531 175.203125 5.109375 C 175.1875 5.070312 175.171875 5.035156 175.152344 4.996094 C 175.140625 4.964844 175.125 4.933594 175.109375 4.902344 C 175.09375 4.867188 175.078125 4.832031 175.0625 4.800781 C 175.050781 4.769531 175.035156 4.738281 175.019531 4.710938 C 175.03125 4.734375 175.042969 4.761719 175.050781 4.789062 C 174.113281 3.089844 170.390625 2.628906 166.558594 3.996094 C 162.570312 5.417969 162.722656 7.898438 162.433594 9.1875 C 162.222656 10.136719 161.0625 10.582031 161.0625 10.582031 C 161.0625 10.582031 160.113281 10.957031 158.066406 11.707031 C 156.105469 12.425781 145.8125 16.113281 144.011719 16.933594 C 142.324219 17.703125 140.660156 18.230469 141.265625 19.867188 C 141.253906 19.847656 141.242188 19.832031 141.234375 19.816406 L 141.21875 19.785156 C 141.246094 19.847656 141.273438 19.910156 141.308594 19.972656 C 141.335938 20.046875 141.367188 20.121094 141.40625 20.195312 L 141.410156 20.203125 C 141.429688 20.242188 141.445312 20.285156 141.464844 20.324219 C 141.453125 20.296875 141.441406 20.265625 141.429688 20.234375 C 142.414062 22.070312 145.253906 20.320312 145.253906 20.320312 C 145.253906 20.320312 156.84375 14.296875 158.753906 13.25 C 160.824219 12.117188 161.59375 11.742188 161.59375 11.742188 C 161.59375 11.742188 162.742188 11.121094 163.570312 11.675781 " fill-opacity="1" fill-rule="nonzero"/></g></g></g><g clip-path="url(#65adc9f4e2)"><path stroke-linecap="butt" transform="matrix(0.156321, 0, 0, 0.156321, 150.666376, 0.821992)" fill="none" stroke-linejoin="miter" d="M 36.243642 145.372853 C 30.521256 145.372853 25.473562 143.998481 21.07557 141.224748 C 16.677579 138.451015 13.254143 134.252932 10.755284 128.655489 C 8.281414 123.033057 7.031985 116.136207 7.031985 107.914962 C 7.031985 99.668729 8.306403 92.746891 10.855238 87.124459 C 13.404074 81.527015 16.952454 77.328933 21.475388 74.5552 C 25.998322 71.781467 31.220936 70.407094 37.143231 70.407094 C 41.641177 70.407094 45.539396 71.181741 48.83789 72.731033 C 52.136383 74.280325 54.910116 76.67923 57.184078 79.952734 L 58.55845 79.627883 L 58.55845 42.769718 L 76.700163 42.769718 L 76.700163 143.998481 L 58.55845 143.998481 L 58.55845 134.627761 L 57.184078 134.377875 C 55.184991 137.776323 52.436246 140.47509 48.937844 142.4242 C 45.439442 144.398298 41.216371 145.372853 36.243642 145.372853 Z M 42.140949 129.979884 C 47.23862 129.979884 51.286771 128.155717 54.235424 124.507384 C 57.209066 120.884039 58.708381 115.336573 58.708381 107.914962 C 58.708381 100.493352 57.209066 94.945886 54.235424 91.297553 C 51.286771 87.62423 47.23862 85.775075 42.140949 85.775075 C 36.793391 85.775075 32.720252 87.574253 29.92153 91.122632 C 27.09782 94.671012 25.698459 100.268455 25.698459 107.914962 C 25.698459 115.511493 27.09782 121.083947 29.92153 124.657315 C 32.720252 128.205695 36.793391 129.979884 42.140949 129.979884 Z M 42.140949 129.979884 " stroke="#000000" stroke-width="9.722975" stroke-opacity="1" stroke-miterlimit="4"/></g><g fill="#000000" fill-opacity="1"><g transform="translate(150.751864, 23.332269)"><g><path d="M 5.578125 0.21875 C 4.679688 0.21875 3.890625 0.00390625 3.203125 -0.421875 C 2.523438 -0.859375 1.988281 -1.515625 1.59375 -2.390625 C 1.207031 -3.273438 1.015625 -4.359375 1.015625 -5.640625 C 1.015625 -6.929688 1.210938 -8.015625 1.609375 -8.890625 C 2.015625 -9.765625 2.566406 -10.421875 3.265625 -10.859375 C 3.972656 -11.296875 4.789062 -11.515625 5.71875 -11.515625 C 6.425781 -11.515625 7.035156 -11.390625 7.546875 -11.140625 C 8.066406 -10.898438 8.503906 -10.523438 8.859375 -10.015625 L 9.078125 -10.0625 L 9.078125 -15.828125 L 11.90625 -15.828125 L 11.90625 0 L 9.078125 0 L 9.078125 -1.46875 L 8.859375 -1.5 C 8.546875 -0.96875 8.113281 -0.546875 7.5625 -0.234375 C 7.019531 0.0664062 6.359375 0.21875 5.578125 0.21875 Z M 6.5 -2.1875 C 7.300781 -2.1875 7.929688 -2.472656 8.390625 -3.046875 C 8.859375 -3.617188 9.09375 -4.484375 9.09375 -5.640625 C 9.09375 -6.796875 8.859375 -7.660156 8.390625 -8.234375 C 7.929688 -8.816406 7.300781 -9.109375 6.5 -9.109375 C 5.664062 -9.109375 5.03125 -8.828125 4.59375 -8.265625 C 4.15625 -7.710938 3.9375 -6.835938 3.9375 -5.640625 C 3.9375 -4.453125 4.15625 -3.578125 4.59375 -3.015625 C 5.03125 -2.460938 5.664062 -2.1875 6.5 -2.1875 Z M 6.5 -2.1875 "/></g></g></g><g clip-path="url(#4d4eb0b6eb)"><path fill="#417ebe" d="M 153.226562 10.320312 C 153.210938 10.519531 153.171875 10.710938 153.109375 10.902344 L 153.089844 10.957031 L 152.820312 10.703125 C 152.671875 10.5625 152.601562 10.445312 152.574219 10.316406 C 152.542969 10.1875 152.554688 10.046875 152.570312 9.863281 L 152.582031 9.730469 C 152.589844 9.585938 152.507812 9.417969 152.386719 9.253906 C 152.207031 9.011719 151.9375 8.785156 151.773438 8.660156 L 150.839844 7.894531 L 150.75 7.820312 L 150.863281 7.832031 C 151.007812 7.84375 151.152344 7.867188 151.292969 7.902344 C 151.433594 7.9375 151.570312 7.984375 151.699219 8.039062 C 151.84375 8.105469 151.984375 8.179688 152.113281 8.269531 C 152.242188 8.359375 152.363281 8.460938 152.476562 8.570312 C 152.640625 8.738281 152.792969 8.917969 152.917969 9.117188 C 153.039062 9.316406 153.132812 9.535156 153.1875 9.769531 C 153.226562 9.953125 153.238281 10.140625 153.226562 10.320312 Z M 150.363281 7.839844 C 150.398438 7.835938 150.433594 7.832031 150.472656 7.828125 L 150.488281 7.828125 L 150.796875 8.136719 C 150.925781 8.265625 151.054688 8.394531 151.21875 8.558594 L 151.363281 8.699219 L 151.542969 8.875 C 151.585938 8.917969 151.625 8.957031 151.667969 8.996094 C 151.671875 9 151.679688 9.007812 151.683594 9.011719 C 151.710938 9.03125 151.734375 9.058594 151.757812 9.089844 C 151.785156 9.121094 151.804688 9.152344 151.820312 9.183594 C 151.828125 9.210938 151.832031 9.234375 151.832031 9.257812 C 151.828125 9.285156 151.816406 9.304688 151.796875 9.328125 L 151.796875 9.332031 C 151.769531 9.359375 151.726562 9.367188 151.6875 9.363281 C 151.636719 9.351562 151.578125 9.328125 151.546875 9.308594 L 151.546875 9.304688 C 151.402344 9.195312 151.261719 9.078125 151.128906 8.957031 C 150.992188 8.835938 150.859375 8.710938 150.730469 8.585938 C 150.660156 8.523438 150.585938 8.453125 150.515625 8.382812 C 150.367188 8.238281 150.214844 8.09375 150.0625 7.953125 L 150.011719 7.90625 L 150.078125 7.890625 C 150.105469 7.886719 150.136719 7.878906 150.167969 7.875 C 150.195312 7.867188 150.226562 7.863281 150.257812 7.855469 C 150.292969 7.851562 150.328125 7.847656 150.363281 7.839844 Z M 149.824219 7.96875 C 149.851562 7.957031 149.878906 7.949219 149.90625 7.941406 L 149.925781 7.933594 L 149.941406 7.949219 C 150.128906 8.144531 150.3125 8.34375 150.503906 8.539062 C 150.664062 8.710938 150.820312 8.878906 150.984375 9.046875 C 151.074219 9.148438 151.171875 9.246094 151.265625 9.34375 L 151.300781 9.382812 C 151.335938 9.417969 151.371094 9.453125 151.40625 9.492188 L 151.410156 9.496094 C 151.429688 9.515625 151.453125 9.550781 151.460938 9.582031 C 151.476562 9.621094 151.472656 9.660156 151.4375 9.695312 C 151.4375 9.695312 151.433594 9.699219 151.433594 9.699219 C 151.398438 9.730469 151.359375 9.734375 151.320312 9.722656 C 151.289062 9.714844 151.257812 9.695312 151.234375 9.671875 C 151.234375 9.667969 151.230469 9.667969 151.230469 9.667969 C 151.171875 9.609375 151.113281 9.554688 151.054688 9.5 L 150.992188 9.441406 C 150.777344 9.234375 150.5625 9.035156 150.351562 8.828125 C 150.097656 8.589844 149.847656 8.355469 149.59375 8.113281 L 149.554688 8.078125 L 149.605469 8.054688 C 149.625 8.046875 149.648438 8.039062 149.671875 8.027344 C 149.695312 8.015625 149.71875 8.007812 149.742188 7.996094 C 149.769531 7.984375 149.796875 7.976562 149.824219 7.96875 Z M 149.394531 8.164062 C 149.421875 8.148438 149.449219 8.132812 149.472656 8.121094 L 149.5 8.105469 L 151.042969 9.804688 L 151.046875 9.808594 C 151.066406 9.839844 151.09375 9.894531 151.101562 9.945312 C 151.105469 9.988281 151.101562 10.027344 151.070312 10.054688 C 151.046875 10.074219 151.023438 10.085938 150.996094 10.089844 C 150.972656 10.089844 150.949219 10.085938 150.925781 10.078125 C 150.890625 10.0625 150.859375 10.042969 150.828125 10.019531 C 150.796875 9.992188 150.769531 9.96875 150.75 9.941406 C 150.746094 9.9375 150.738281 9.929688 150.734375 9.925781 C 150.675781 9.863281 150.613281 9.796875 150.550781 9.734375 L 150.492188 9.675781 C 150.417969 9.597656 150.339844 9.523438 150.265625 9.449219 L 150.03125 9.210938 C 149.746094 8.925781 149.460938 8.636719 149.175781 8.351562 L 149.148438 8.324219 L 149.179688 8.296875 C 149.203125 8.28125 149.226562 8.265625 149.25 8.25 C 149.273438 8.234375 149.296875 8.21875 149.320312 8.203125 C 149.34375 8.195312 149.371094 8.179688 149.394531 8.164062 Z M 149.394531 8.164062 " fill-opacity="1" fill-rule="nonzero"/></g><g clip-path="url(#f70fbeb403)"><path fill="#000000" d="M 148.699219 10.371094 C 148.746094 10.457031 148.785156 10.542969 148.8125 10.632812 L 148.8125 10.644531 C 148.800781 10.753906 148.8125 10.863281 148.832031 10.972656 C 148.855469 11.09375 148.898438 11.214844 148.949219 11.328125 C 149.003906 11.449219 149.070312 11.566406 149.148438 11.679688 C 149.230469 11.796875 149.324219 11.90625 149.425781 12.003906 C 149.5625 12.144531 149.726562 12.273438 149.90625 12.378906 C 150.066406 12.472656 150.234375 12.546875 150.414062 12.589844 C 150.566406 12.625 150.730469 12.636719 150.878906 12.601562 C 151.007812 12.578125 151.125 12.523438 151.222656 12.425781 C 151.316406 12.328125 151.375 12.210938 151.398438 12.082031 C 151.429688 11.933594 151.417969 11.769531 151.382812 11.617188 C 151.34375 11.441406 151.269531 11.269531 151.175781 11.109375 C 151.074219 10.929688 150.941406 10.769531 150.800781 10.628906 C 150.699219 10.527344 150.589844 10.433594 150.476562 10.355469 C 150.363281 10.277344 150.246094 10.207031 150.121094 10.152344 C 150.011719 10.101562 149.890625 10.0625 149.769531 10.035156 C 149.660156 10.015625 149.550781 10.003906 149.441406 10.015625 L 149.429688 10.015625 C 149.335938 9.988281 149.246094 9.949219 149.160156 9.898438 C 149.074219 9.851562 148.992188 9.796875 148.917969 9.738281 C 148.820312 9.664062 148.726562 9.585938 148.636719 9.496094 C 148.546875 9.410156 148.464844 9.320312 148.386719 9.226562 L 148.367188 9.207031 L 148.382812 9.1875 C 148.410156 9.136719 148.441406 9.085938 148.476562 9.035156 C 148.507812 8.988281 148.546875 8.9375 148.582031 8.890625 C 148.625 8.832031 148.667969 8.78125 148.714844 8.726562 C 148.761719 8.675781 148.808594 8.625 148.859375 8.574219 C 148.875 8.5625 148.890625 8.546875 148.90625 8.53125 C 148.917969 8.519531 148.933594 8.503906 148.953125 8.488281 C 148.964844 8.476562 148.976562 8.464844 148.988281 8.453125 C 149 8.445312 149.015625 8.433594 149.027344 8.421875 L 149.058594 8.398438 L 149.078125 8.425781 C 149.164062 8.53125 149.296875 8.691406 149.429688 8.851562 C 149.753906 9.242188 150.074219 9.628906 150.398438 10.035156 C 150.519531 10.203125 150.75 10.46875 150.992188 10.648438 C 151.15625 10.769531 151.324219 10.855469 151.46875 10.84375 L 151.597656 10.832031 C 151.785156 10.816406 151.925781 10.804688 152.054688 10.835938 C 152.183594 10.863281 152.300781 10.9375 152.441406 11.085938 L 152.609375 11.265625 L 152.835938 11.507812 L 152.824219 11.527344 C 152.777344 11.617188 152.722656 11.699219 152.667969 11.785156 C 152.613281 11.867188 152.558594 11.949219 152.5 12.035156 C 152.4375 12.121094 152.375 12.207031 152.308594 12.289062 C 152.242188 12.375 152.175781 12.457031 152.109375 12.539062 C 151.992188 12.683594 151.867188 12.824219 151.742188 12.96875 C 151.617188 13.105469 151.492188 13.246094 151.367188 13.382812 L 151.320312 13.4375 C 151.109375 13.671875 150.898438 13.902344 150.695312 14.148438 L 150.667969 14.183594 L 150.640625 14.148438 C 150.441406 13.90625 150.226562 13.671875 150.015625 13.4375 L 149.96875 13.382812 C 149.84375 13.246094 149.71875 13.105469 149.59375 12.96875 C 149.46875 12.824219 149.347656 12.683594 149.230469 12.539062 C 149.058594 12.332031 148.890625 12.117188 148.734375 11.886719 C 148.582031 11.660156 148.441406 11.421875 148.335938 11.175781 C 148.234375 10.953125 148.164062 10.722656 148.128906 10.488281 C 148.09375 10.257812 148.097656 10.015625 148.148438 9.773438 L 148.164062 9.714844 L 148.207031 9.757812 C 148.269531 9.816406 148.328125 9.878906 148.386719 9.941406 C 148.441406 10.003906 148.496094 10.070312 148.546875 10.136719 C 148.605469 10.207031 148.65625 10.289062 148.699219 10.371094 Z M 148.699219 10.371094 " fill-opacity="1" fill-rule="nonzero"/></g><g clip-path="url(#07e3641c90)"><path fill="#000000" d="M 142.917969 19.671875 L 140.125 19.671875 C 139.992188 15.757812 137.023438 12.550781 133.214844 12.046875 C 133.472656 11.632812 133.644531 11.054688 133.695312 10.375 C 133.71875 10.023438 133.550781 9.6875 133.25 9.5 C 132.589844 9.082031 131.738281 9.082031 131.078125 9.5 C 130.777344 9.6875 130.609375 10.023438 130.632812 10.375 C 130.683594 11.054688 130.855469 11.632812 131.113281 12.046875 C 127.304688 12.550781 124.335938 15.757812 124.203125 19.671875 L 121.410156 19.671875 C 121.199219 19.671875 121.027344 19.84375 121.027344 20.058594 C 121.027344 20.269531 121.199219 20.441406 121.410156 20.441406 L 122.125 20.441406 L 122.5625 21.335938 C 122.699219 21.617188 122.992188 21.800781 123.308594 21.800781 L 141.019531 21.800781 C 141.335938 21.800781 141.628906 21.617188 141.769531 21.335938 L 142.203125 20.441406 L 142.917969 20.441406 C 143.128906 20.441406 143.300781 20.269531 143.300781 20.058594 C 143.300781 19.84375 143.128906 19.671875 142.917969 19.671875 Z M 131.402344 10.320312 C 131.394531 10.253906 131.429688 10.1875 131.488281 10.148438 C 131.695312 10.019531 131.929688 9.957031 132.164062 9.957031 C 132.398438 9.957031 132.636719 10.019531 132.839844 10.148438 C 132.898438 10.1875 132.933594 10.253906 132.925781 10.320312 C 132.851562 11.386719 132.425781 11.976562 132.164062 11.976562 C 131.902344 11.976562 131.476562 11.386719 131.402344 10.320312 Z M 132.164062 12.746094 C 136.042969 12.746094 139.210938 15.828125 139.355469 19.671875 L 124.972656 19.671875 C 125.117188 15.828125 128.285156 12.746094 132.164062 12.746094 Z M 141.078125 20.996094 C 141.066406 21.019531 141.042969 21.035156 141.019531 21.035156 L 123.308594 21.035156 C 123.285156 21.035156 123.261719 21.019531 123.25 20.996094 L 122.980469 20.441406 L 141.347656 20.441406 Z M 141.078125 20.996094 " fill-opacity="1" fill-rule="nonzero"/></g><g clip-path="url(#d927f0ec9c)"><path fill="#000000" d="M 132.28125 7.765625 C 132.34375 7.800781 132.410156 7.816406 132.476562 7.816406 C 132.609375 7.816406 132.738281 7.75 132.808594 7.625 C 132.917969 7.441406 132.855469 7.207031 132.671875 7.101562 C 132.230469 6.84375 131.980469 6.574219 131.933594 6.308594 C 131.847656 5.839844 132.339844 5.222656 132.816406 4.628906 C 133.621094 3.628906 134.722656 2.261719 133.148438 0.964844 C 132.984375 0.828125 132.742188 0.851562 132.605469 1.015625 C 132.46875 1.179688 132.492188 1.421875 132.65625 1.558594 C 133.550781 2.296875 133.210938 2.914062 132.21875 4.148438 C 131.632812 4.878906 131.027344 5.632812 131.175781 6.449219 C 131.269531 6.953125 131.632812 7.382812 132.28125 7.765625 Z M 132.28125 7.765625 " fill-opacity="1" fill-rule="nonzero"/></g><g clip-path="url(#3a45bb9d35)"><path fill="#000000" d="M 129.128906 9.078125 C 129.191406 9.113281 129.257812 9.128906 129.324219 9.128906 C 129.457031 9.128906 129.585938 9.0625 129.65625 8.9375 C 129.765625 8.757812 129.703125 8.519531 129.519531 8.414062 C 129.148438 8.195312 128.941406 7.976562 128.898438 7.757812 C 128.828125 7.371094 129.25 6.847656 129.660156 6.339844 C 130.035156 5.871094 130.425781 5.386719 130.582031 4.859375 C 130.777344 4.191406 130.5625 3.59375 129.9375 3.078125 C 129.777344 2.945312 129.535156 2.96875 129.398438 3.132812 C 129.261719 3.296875 129.285156 3.539062 129.449219 3.671875 C 130.195312 4.289062 129.921875 4.785156 129.0625 5.855469 C 128.542969 6.5 128.007812 7.164062 128.144531 7.898438 C 128.226562 8.351562 128.550781 8.738281 129.128906 9.078125 Z M 129.128906 9.078125 " fill-opacity="1" fill-rule="nonzero"/></g><g clip-path="url(#7894d7eead)"><path fill="#000000" d="M 133.699219 7.898438 C 133.78125 8.351562 134.105469 8.738281 134.683594 9.078125 C 134.746094 9.113281 134.8125 9.128906 134.878906 9.128906 C 135.011719 9.128906 135.140625 9.0625 135.210938 8.9375 C 135.316406 8.757812 135.257812 8.519531 135.074219 8.414062 C 134.703125 8.195312 134.496094 7.976562 134.453125 7.757812 C 134.382812 7.371094 134.804688 6.847656 135.214844 6.339844 C 135.589844 5.871094 135.980469 5.386719 136.136719 4.859375 C 136.332031 4.191406 136.117188 3.59375 135.492188 3.078125 C 135.328125 2.945312 135.085938 2.96875 134.953125 3.132812 C 134.816406 3.296875 134.839844 3.539062 135.003906 3.671875 C 135.75 4.289062 135.476562 4.785156 134.617188 5.855469 C 134.097656 6.5 133.5625 7.164062 133.699219 7.898438 Z M 133.699219 7.898438 " fill-opacity="1" fill-rule="nonzero"/></g><g clip-path="url(#35cde44786)"><path fill="#417ebe" d="M 119.296875 25.050781 C 119.296875 25.050781 114.921875 24.839844 118.75 26.0625 C 119.722656 26.371094 126.085938 27.550781 126.085938 27.550781 C 126.085938 27.550781 126.109375 28.1875 126.402344 28.1875 L 139.636719 28.1875 C 139.925781 28.1875 139.953125 27.550781 139.953125 27.550781 C 139.953125 27.550781 146.296875 26.308594 147.289062 26.0625 C 150.96875 25.128906 146.742188 25.050781 146.742188 25.050781 L 119.296875 25.050781 " fill-opacity="1" fill-rule="nonzero"/></g></svg>